<?xml version="1.0" encoding="utf-8"?>
<!-- Generator: Adobe Illustrator 22.1.0, SVG Export Plug-In . SVG Version: 6.00 Build 0)  -->
<svg version="1.1" id="图层_1" xmlns="http://www.w3.org/2000/svg" xmlns:xlink="http://www.w3.org/1999/xlink" x="0px" y="0px"
	 viewBox="0 0 1024 1024" style="enable-background:new 0 0 1024 1024;" xml:space="preserve">
<style type="text/css">
	.st0{fill:#9E5854;}
	.st1{fill:#C68D8B;}
	.st2{fill:#441919;}
	.st3{fill:#5252B0;}
	.st4{opacity:0.6;}
	.st5{fill:#1E204F;}
	.st6{fill:#050000;}
	.st7{fill:#7E3B39;}
	.st8{fill:#0A0356;}
	.st9{fill:#1B0070;}
	.st10{fill:#6F6FCE;}
	.st11{fill:#5959C1;}
	.st12{opacity:0.8;}
	.st13{fill:#0B0230;}
	.st14{fill:#45459B;}
	.st15{opacity:0.1;}
	.st16{fill:#FFFFFF;}
	.st17{fill:#6767D6;}
	.st18{fill:#FCFCFC;}
	.st19{fill:none;stroke:#FCFCFC;stroke-width:0.25;stroke-miterlimit:10;}
</style>
<g>
	<g>
		<rect x="453.9" y="158" class="st0" width="128.1" height="19.6"/>
	</g>
	<g>
		<polygon class="st1" points="485.7,159.9 485.7,177.6 453.9,177.6 453.9,164 		"/>
	</g>
	<g>
		<polygon class="st2" points="448,159.9 451.9,164 485.7,159.9 545.5,159.9 581.8,164 583.9,159.9 516,132.7 		"/>
	</g>
	<g>
		<path class="st3" d="M513.2,86.2c0,0-52,67.1-67.4,64.2l2.1,9.5l38.7-4.3h62.1l35.1,4.3l5.8-8.4
			C589.8,151.4,546.2,134.7,513.2,86.2z"/>
	</g>
	<g class="st4">
		<g>
			<path class="st5" d="M514.5,88.1c0,0,40.2,55.5,76.2,62.3l-0.9,1l-45.7-6.9c0,0-8.3,0.8-20.1-26
				C523.9,118.6,512.1,92.4,514.5,88.1z"/>
		</g>
	</g>
	<g>
		<g>
			<path class="st6" d="M508.5,176.9h-8.9v-6.8c0-2.4,2-4.4,4.4-4.4h0.2c2.4,0,4.4,2,4.4,4.4V176.9z"/>
		</g>
		<g>
			<path class="st6" d="M536.1,176.9h-8.9V170c0-2.4,2-4.4,4.4-4.4h0.2c2.4,0,4.4,2,4.4,4.4V176.9z"/>
		</g>
		<g>
			<path class="st6" d="M523.7,176.9H512v-6.6c0-3.2,2.6-5.7,5.7-5.7h0.2c3.2,0,5.7,2.6,5.7,5.7V176.9z"/>
		</g>
	</g>
	<g>
		<g>
			<path class="st6" d="M477.5,166.6L477.5,166.6c-1.5,0.2-2.6,1.5-2.6,3v8h6v-8C480.9,167.8,479.3,166.4,477.5,166.6z"/>
		</g>
		<g>
			<path class="st6" d="M469.1,167.7L469.1,167.7c-1.5,0.2-2.6,1.5-2.6,3v6.9h6v-6.9C472.5,168.8,470.9,167.4,469.1,167.7z"/>
		</g>
		<g>
			<path class="st6" d="M460.5,168.7L460.5,168.7c-1.5,0.2-2.6,1.5-2.6,3v5.9h6v-5.9C463.9,169.8,462.3,168.4,460.5,168.7z"/>
		</g>
	</g>
	<g>
		<polygon class="st7" points="545.5,159.9 545.5,177.6 582,177.6 581.8,164 		"/>
	</g>
	<g>
		<path class="st8" d="M590.7,150.7C590.7,150.7,590.7,150.7,590.7,150.7c-32.5-3.2-77.2-63.7-77.7-64.3c-0.1-0.1-0.1-0.3,0.1-0.4
			c0.1-0.1,0.3-0.1,0.4,0.1c0.4,0.6,45,60.9,77.3,64.1c0.1,0,0.2,0.1,0.2,0.3C591,150.6,590.8,150.7,590.7,150.7z"/>
	</g>
	<g>
		<polygon class="st9" points="513.2,88.1 510.5,83.4 513.2,80.1 516,83.3 		"/>
	</g>
	<g>
		<polygon class="st10" points="446.2,152.1 485.7,144.8 545.5,144.5 589.8,151.4 583.9,159.9 545.5,155.6 486.7,155.6 448,159.9 		
			"/>
	</g>
	<g>
		<polygon class="st11" points="485.7,144.8 486.7,155.6 545.5,155.6 545.5,144.5 		"/>
	</g>
	<g class="st12">
		<g>
			<polygon class="st5" points="545.5,144.5 545.5,155.6 583.9,159.9 589.8,151.4 			"/>
		</g>
	</g>
	<g>
		<path class="st13" d="M446.1,150.7c-0.1,0-0.2,0-0.3,0c-0.1,0-0.3-0.1-0.2-0.3c0-0.1,0.1-0.3,0.3-0.2c0.1,0,0.2,0,0.3,0
			c17.2,0,66.4-63.5,66.9-64.1c0.1-0.1,0.2-0.1,0.4,0c0.1,0.1,0.1,0.2,0,0.4C511.4,89,463.7,150.7,446.1,150.7z"/>
	</g>
	<g>
		<path class="st14" d="M513.2,88.1c0,0-7.6,50.9-27.5,56.8l59.8-0.3C545.5,144.5,529,146.8,513.2,88.1z"/>
	</g>
	<g>
		<g>
			<path class="st6" d="M558,166.6L558,166.6c1.5,0.2,2.6,1.5,2.6,3v8h-6v-8C554.7,167.8,556.3,166.4,558,166.6z"/>
		</g>
		<g>
			<path class="st6" d="M566.4,167.7L566.4,167.7c1.5,0.2,2.6,1.5,2.6,3v6.9h-6v-6.9C563,168.8,564.6,167.4,566.4,167.7z"/>
		</g>
		<g>
			<path class="st6" d="M575.1,168.7L575.1,168.7c1.5,0.2,2.6,1.5,2.6,3v5.9h-6v-5.9C571.7,169.8,573.3,168.4,575.1,168.7z"/>
		</g>
	</g>
	<g class="st15">
		<path class="st16" d="M441.1,184.5c-1,0-2.1-0.1-3.2-0.2l0-0.2c12.1,1.7,18.4-6.6,18.5-6.7l0.2,0.1
			C456.5,177.6,451.2,184.5,441.1,184.5z"/>
	</g>
	<g class="st15">
		<path class="st16" d="M595.5,183.9c-9.9,0-14.6-6.5-14.6-6.5l0.2-0.1c0.1,0.1,5.7,7.9,17.8,6.2l0,0.2
			C597.7,183.8,596.6,183.9,595.5,183.9z"/>
	</g>
	<g>
		<g>
			<g>
				<rect x="447.1" y="196.6" class="st1" width="139.7" height="15.9"/>
			</g>
			<g>
				<polygon class="st7" points="545.5,196.2 586.8,198 586.8,212.5 545.5,212.5 				"/>
			</g>
			<g>
				<rect x="485.7" y="194.5" class="st0" width="59.8" height="17.9"/>
			</g>
			<g>
				<path class="st2" d="M436.4,177.5c0,0,1,19,10.6,22.2l39.1-2.3h67l33.6,2.4c0,0,15.3-10.3,14.8-22.2c0,0-10.1,11.6-22.6,9.8
					s-28.7-6.1-28.7-6.1h-64.5C485.7,181.3,445.4,191.8,436.4,177.5z"/>
			</g>
			<g>
				<path class="st3" d="M453.8,177.6l128.2-0.3c0,0,9.4,6.9,19.3,0.3c0,0-4.5,14.2-14.9,16.1c-10.4,1.9-28.3,0-28.3,0l-5.5-7.6
					l-3.7,8.5h-59.6l-3-8.5l-4,8.5h-33.8c0,0-9.7-0.1-12.2-17C436.4,177.6,444.8,183,453.8,177.6z"/>
			</g>
			<g class="st4">
				<g>
					<path class="st5" d="M582.3,177.3l-34.2,0.1l5.2,9.3l5,7c0,0,17.9,1.9,28.3,0c10.4-1.9,14.9-16.1,14.9-16.1
						C591.6,184.2,582.3,177.3,582.3,177.3z"/>
				</g>
			</g>
			<g>
				<path class="st17" d="M453.8,177.5c-8.9,5.5-17.4,0-17.4,0c2.5,16.8,12.2,17,12.2,17h33.8l4-8.5l0.1,0.2l3-8.8L453.8,177.5z"/>
			</g>
		</g>
		<g>
			<g>
				<path class="st6" d="M507.9,212.5H499v-5.9c0-2.4,2-4.4,4.4-4.4h0.2c2.4,0,4.4,2,4.4,4.4V212.5z"/>
			</g>
			<g>
				<path class="st6" d="M535.5,212.5h-8.9v-6c0-2.4,2-4.4,4.4-4.4h0.2c2.4,0,4.4,2,4.4,4.4V212.5z"/>
			</g>
			<g>
				<path class="st6" d="M523.1,212.5h-11.7v-5.6c0-3.2,2.6-5.7,5.7-5.7h0.2c3.2,0,5.7,2.6,5.7,5.7V212.5z"/>
			</g>
		</g>
		<g>
			<g>
				<path class="st6" d="M476.9,202.5L476.9,202.5c-1.5,0.2-2.6,1.3-2.6,2.7v7.3h6v-7.3C480.3,203.6,478.7,202.3,476.9,202.5z"/>
			</g>
			<g>
				<path class="st6" d="M468.5,203.5L468.5,203.5c-1.5,0.2-2.6,1.3-2.6,2.7v6.4h6v-6.4C471.9,204.5,470.3,203.3,468.5,203.5z"/>
			</g>
			<g>
				<path class="st6" d="M459.9,204.4L459.9,204.4c-1.5,0.2-2.6,1.3-2.6,2.7v5.5h6v-5.5C463.3,205.4,461.7,204.2,459.9,204.4z"/>
			</g>
		</g>
		<g>
			<g>
				<path class="st6" d="M557.5,202.5L557.5,202.5c1.5,0.2,2.6,1.3,2.6,2.7v7.3h-6v-7.3C554.1,203.6,555.7,202.3,557.5,202.5z"/>
			</g>
			<g>
				<path class="st6" d="M565.8,203.5L565.8,203.5c1.5,0.2,2.6,1.3,2.6,2.7v6.4h-6v-6.4C562.4,204.5,564,203.3,565.8,203.5z"/>
			</g>
			<g>
				<path class="st6" d="M574.5,204.4L574.5,204.4c1.5,0.2,2.6,1.3,2.6,2.7v5.5h-6v-5.5C571.1,205.4,572.7,204.2,574.5,204.4z"/>
			</g>
		</g>
		<g class="st15">
			<g>
				<rect x="518.7" y="177.5" class="st18" width="0.3" height="17.1"/>
			</g>
			<g>
				<polygon class="st18" points="524.2,194.5 522.3,177.6 522.6,177.5 524.5,194.5 				"/>
			</g>
			<g>
				
					<rect x="527.6" y="177" transform="matrix(0.9797 -0.2003 0.2003 0.9797 -26.499 109.4564)" class="st18" width="0.3" height="17.3"/>
			</g>
			<g>
				
					<rect x="532.2" y="176.9" transform="matrix(0.9608 -0.2772 0.2772 0.9608 -30.6736 154.8278)" class="st18" width="0.3" height="17.9"/>
			</g>
			<g>
				
					<rect x="537.1" y="176.6" transform="matrix(0.9276 -0.3735 0.3735 0.9276 -30.5856 214.1478)" class="st18" width="0.3" height="18.7"/>
			</g>
			<g>
				
					<rect x="542.9" y="176.5" transform="matrix(0.8977 -0.4407 0.4407 0.8977 -26.4025 258.3055)" class="st18" width="0.3" height="19"/>
			</g>
		</g>
		<g class="st15">
			<g>
				<polygon class="st18" points="513.5,194.5 513.2,194.4 515.1,177.5 515.4,177.5 				"/>
			</g>
			<g>
				<polygon class="st18" points="508.4,194.5 508.2,194.4 511.7,177.4 511.9,177.5 				"/>
			</g>
			<g>
				
					<rect x="496.9" y="185.9" transform="matrix(0.2856 -0.9584 0.9584 0.2856 183.0222 617.614)" class="st18" width="17.7" height="0.3"/>
			</g>
			<g>
				<polygon class="st18" points="497.5,194.5 497.3,194.4 503.1,177.4 503.3,177.5 				"/>
			</g>
		</g>
		<g class="st15">
			<path class="st16" d="M441.4,190.1c-0.1,0-0.2,0-0.3,0l0-0.2c0.1,0,0.2,0,0.2,0c9.7,0,19.3-12.4,19.4-12.5l0.2,0.1
				C460.9,177.6,451.1,190.1,441.4,190.1z"/>
		</g>
		<g class="st15">
			
				<rect x="486.1" y="185.8" transform="matrix(0.3511 -0.9363 0.9363 0.3511 147.1529 584.2397)" class="st18" width="17.9" height="0.3"/>
		</g>
		<g>
			<path class="st19" d="M463.3,194.4"/>
		</g>
		<g>
			<path class="st19" d="M456.2,194.2"/>
		</g>
		<g class="st15">
			<path class="st18" d="M448.6,194.6l-0.1-0.2c10.4-5.2,16.5-16.7,16.6-16.8l0.2,0.1C465.3,177.7,459.1,189.3,448.6,194.6z"/>
		</g>
		<g class="st15">
			<path class="st18" d="M457.9,194.5l-0.1-0.2c3.8-1.1,12.6-16.7,12.7-16.9l0.2,0.1C470.4,178.1,461.8,193.3,457.9,194.5z"/>
		</g>
		<g class="st15">
			<path class="st18" d="M465.3,194.6l-0.2-0.2c4.2-4.2,10.1-16.9,10.1-17l0.2,0.1C475.4,177.7,469.6,190.4,465.3,194.6z"/>
		</g>
		<g class="st15">
			<path class="st18" d="M471.1,194.6l-0.1-0.2c4.1-2.8,8.6-17,8.7-17.2l0.2,0.1C479.7,177.9,475.2,191.8,471.1,194.6z"/>
		</g>
		<g class="st15">
			<path class="st18" d="M477.3,194.3l-0.1-0.2c2.9-1.1,7.1-16.6,7.2-16.8l0.2,0.1C484.5,178,480.3,193.2,477.3,194.3z"/>
		</g>
		<g class="st15">
			<path class="st16" d="M594.4,189.1c-9.7,0-17.4-11.4-17.5-11.5l0.2-0.1c0.1,0.1,7.7,11.4,17.3,11.4c0.1,0,0.2,0,0.3,0l0,0.2
				C594.5,189.1,594.4,189.1,594.4,189.1z"/>
		</g>
		<g class="st15">
			<path class="st18" d="M588.2,193.4c-10.4-5.3-16.6-15.7-16.6-15.8l0.2-0.1c0.1,0.1,6.1,10.5,16.5,15.7L588.2,193.4z"/>
		</g>
		<g class="st15">
			<path class="st18" d="M580.9,194.5c-3.9-1.1-13.7-16.2-14.1-16.8l0.2-0.1c0.1,0.2,10.2,15.6,14,16.7L580.9,194.5z"/>
		</g>
		<g class="st15">
			<path class="st18" d="M573.6,194.6c-4.3-4.3-11.2-16.9-11.3-17l0.2-0.1c0.1,0.1,7,12.7,11.2,16.9L573.6,194.6z"/>
		</g>
		<g class="st15">
			<path class="st18" d="M568.9,194.6c-4.1-2.9-11.1-16.4-11.4-17l0.2-0.1c0.1,0.1,7.2,14.1,11.3,16.9L568.9,194.6z"/>
		</g>
		<g class="st15">
			<path class="st18" d="M563,194.5c-3-1.1-10.3-16.4-10.6-17l0.2-0.1c0.1,0.2,7.6,15.8,10.5,16.9L563,194.5z"/>
		</g>
	</g>
	<g>
		<g>
			<g>
				<rect x="441.1" y="233.2" class="st1" width="151.4" height="17.2"/>
			</g>
			<g>
				<polygon class="st7" points="547.8,232.7 592.5,234.7 592.5,250.4 547.8,250.4 				"/>
			</g>
			<g>
				<rect x="483" y="231" class="st0" width="64.8" height="19.4"/>
			</g>
			<g>
				<path class="st2" d="M429.6,212.5c0,0,1.1,20.6,11.5,24l42.4-2.5h72.6l36.4,2.6c0,0,16.6-11.1,16-24c0,0-11,12.6-24.5,10.7
					c-13.5-2-31.1-6.6-31.1-6.6H483C483,216.6,439.4,227.9,429.6,212.5z"/>
			</g>
			<g>
				<path class="st3" d="M448.4,212.6l138.9-0.3c0,0,10.2,7.5,20.9,0.3c0,0-4.8,15.4-16.1,17.5c-11.3,2.1-30.7,0-30.7,0l-5.9-8.3
					l-4,9.2h-64.5l-3.2-9.2l-4.3,9.2h-36.6c0,0-10.5-0.1-13.2-18.4C429.6,212.6,438.8,218.5,448.4,212.6z"/>
			</g>
			<g class="st4">
				<g>
					<path class="st5" d="M587.6,212.3l-37,0.1l5.7,10.1l5.4,7.6c0,0,19.4,2.1,30.7,0c11.3-2.1,16.1-17.5,16.1-17.5
						C597.7,219.8,587.6,212.3,587.6,212.3z"/>
				</g>
			</g>
			<g>
				<path class="st17" d="M448.4,212.5c-9.7,5.9-18.8,0-18.8,0c2.7,18.2,13.2,18.4,13.2,18.4h36.6l4.3-9.2l0.1,0.2l3.2-9.6
					L448.4,212.5z"/>
			</g>
		</g>
		<g>
			<g>
				<path class="st6" d="M507,250.4h-9.7v-6.7c0-2.4,2-4.4,4.4-4.4h0.9c2.4,0,4.4,2,4.4,4.4V250.4z"/>
			</g>
			<g>
				<path class="st6" d="M536.9,250.4h-9.7v-6.8c0-2.4,2-4.4,4.4-4.4h0.9c2.4,0,4.4,2,4.4,4.4V250.4z"/>
			</g>
			<g>
				<path class="st6" d="M523.5,250.4h-12.7v-6.5c0-3.2,2.6-5.7,5.7-5.7h1.2c3.2,0,5.7,2.6,5.7,5.7V250.4z"/>
			</g>
		</g>
		<g>
			<g>
				<path class="st6" d="M473.5,239.6L473.5,239.6c-1.6,0.2-2.8,1.5-2.8,2.9v8h6.5v-8C477.1,240.7,475.4,239.3,473.5,239.6z"/>
			</g>
			<g>
				<path class="st6" d="M464.4,240.6L464.4,240.6c-1.6,0.2-2.8,1.5-2.8,2.9v6.9h6.5v-6.9C468.1,241.8,466.4,240.4,464.4,240.6z"/>
			</g>
			<g>
				<path class="st6" d="M455.1,241.6L455.1,241.6c-1.6,0.2-2.8,1.5-2.8,2.9v5.9h6.5v-5.9C458.7,242.8,457,241.4,455.1,241.6z"/>
			</g>
		</g>
		<g>
			<g>
				<path class="st6" d="M560.7,239.6L560.7,239.6c1.6,0.2,2.8,1.5,2.8,2.9v8H557v-8C557,240.7,558.8,239.3,560.7,239.6z"/>
			</g>
			<g>
				<path class="st6" d="M569.8,240.6L569.8,240.6c1.6,0.2,2.8,1.5,2.8,2.9v6.9h-6.5v-6.9C566.1,241.8,567.8,240.4,569.8,240.6z"/>
			</g>
			<g>
				<path class="st6" d="M579.1,241.6L579.1,241.6c1.6,0.2,2.8,1.5,2.8,2.9v5.9h-6.5v-5.9C575.5,242.8,577.2,241.4,579.1,241.6z"/>
			</g>
		</g>
		<g class="st15">
			<g>
				<rect x="518.8" y="212.5" class="st18" width="0.3" height="18.5"/>
			</g>
			<g>
				<polygon class="st18" points="524.7,231 522.7,212.6 522.9,212.5 525,230.9 				"/>
			</g>
			<g>
				
					<rect x="528.4" y="212" transform="matrix(0.9798 -0.2002 0.2002 0.9798 -33.6232 110.3104)" class="st18" width="0.3" height="18.8"/>
			</g>
			<g>
				
					<rect x="533.3" y="211.9" transform="matrix(0.9608 -0.2772 0.2772 0.9608 -40.5219 156.5426)" class="st18" width="0.3" height="19.4"/>
			</g>
			<g>
				
					<rect x="538.7" y="211.5" transform="matrix(0.9276 -0.3735 0.3735 0.9276 -43.8077 217.3269)" class="st18" width="0.3" height="20.3"/>
			</g>
			<g>
				
					<rect x="544.9" y="211.4" transform="matrix(0.8977 -0.4407 0.4407 0.8977 -41.9252 262.8708)" class="st18" width="0.3" height="20.6"/>
			</g>
		</g>
		<g class="st15">
			<g>
				<polygon class="st18" points="513.1,230.9 512.8,230.9 514.9,212.5 515.2,212.5 				"/>
			</g>
			<g>
				<polygon class="st18" points="507.6,230.9 507.4,230.8 511.1,212.4 511.4,212.5 				"/>
			</g>
			<g>
				
					<rect x="495.1" y="221.6" transform="matrix(0.2856 -0.9584 0.9584 0.2856 148.0604 642.1345)" class="st18" width="19.2" height="0.3"/>
			</g>
			<g>
				<polygon class="st18" points="495.8,230.9 495.6,230.8 501.8,212.4 502.1,212.5 				"/>
			</g>
		</g>
		<g class="st15">
			<path class="st16" d="M435,226.1c-0.1,0-0.2,0-0.3,0l0-0.2c0.1,0,0.2,0,0.3,0c10.5,0,20.9-13.4,21-13.5l0.2,0.1
				C456.1,212.6,445.6,226.1,435,226.1z"/>
		</g>
		<g class="st15">
			
				<rect x="483.5" y="221.5" transform="matrix(0.3511 -0.9363 0.9363 0.3511 112.4805 605.6084)" class="st18" width="19.4" height="0.3"/>
		</g>
		<g>
			<path class="st19" d="M458.7,230.8"/>
		</g>
		<g>
			<path class="st19" d="M451.1,230.6"/>
		</g>
		<g class="st15">
			<path class="st18" d="M442.8,231l-0.1-0.2c11.2-5.7,17.9-18.1,18-18.2l0.2,0.1C460.8,212.8,454.2,225.3,442.8,231z"/>
		</g>
		<g class="st15">
			<path class="st18" d="M452.9,230.9l-0.1-0.2c4.1-1.2,13.6-18.1,13.7-18.3l0.2,0.1C466.4,213.1,457.1,229.6,452.9,230.9z"/>
		</g>
		<g class="st15">
			<path class="st18" d="M460.9,231l-0.2-0.2c4.6-4.6,10.9-18.3,11-18.4l0.2,0.1C471.9,212.7,465.5,226.4,460.9,231z"/>
		</g>
		<g class="st15">
			<path class="st18" d="M467.2,231.1l-0.1-0.2c4.4-3.1,9.3-18.4,9.4-18.6l0.2,0.1C476.5,213,471.6,227.9,467.2,231.1z"/>
		</g>
		<g class="st15">
			<path class="st18" d="M473.9,230.7l-0.1-0.2c3.1-1.2,7.7-18,7.8-18.2l0.2,0.1C481.7,213,477.2,229.5,473.9,230.7z"/>
		</g>
		<g class="st15">
			<path class="st16" d="M600.7,225.1c-10.5,0-18.8-12.3-18.9-12.4l0.2-0.1c0.1,0.1,8.3,12.4,18.7,12.4c0.1,0,0.2,0,0.3,0l0,0.2
				C600.9,225.1,600.8,225.1,600.7,225.1z"/>
		</g>
		<g class="st15">
			<path class="st18" d="M594,229.7c-11.3-5.7-17.9-17-18-17.1l0.2-0.1c0.1,0.1,6.6,11.3,17.9,17L594,229.7z"/>
		</g>
		<g class="st15">
			<path class="st18" d="M586.2,230.9c-4.2-1.2-14.8-17.5-15.3-18.2l0.2-0.1c0.1,0.2,11,16.9,15.1,18.1L586.2,230.9z"/>
		</g>
		<g class="st15">
			<path class="st18" d="M578.2,231c-4.6-4.6-12.1-18.3-12.2-18.4l0.2-0.1c0.1,0.1,7.6,13.8,12.2,18.4L578.2,231z"/>
		</g>
		<g class="st15">
			<path class="st18" d="M573.2,231c-4.5-3.1-12-17.8-12.3-18.4l0.2-0.1c0.1,0.2,7.8,15.2,12.3,18.3L573.2,231z"/>
		</g>
		<g class="st15">
			<path class="st18" d="M566.7,230.8c-3.2-1.2-11.2-17.7-11.5-18.4l0.2-0.1c0.1,0.2,8.3,17.1,11.4,18.3L566.7,230.8z"/>
		</g>
	</g>
	<g>
		<g>
			<g>
				<rect x="432.8" y="273" class="st1" width="165.2" height="18.8"/>
			</g>
			<g>
				<polygon class="st7" points="549.2,272.6 598,274.7 598,291.8 549.2,291.8 				"/>
			</g>
			<g>
				<rect x="478.5" y="270.6" class="st0" width="70.7" height="21.2"/>
			</g>
			<g>
				<path class="st2" d="M420.2,250.4c0,0,1.2,22.4,12.6,26.2l46.3-2.7h79.2l39.7,2.8c0,0,18.1-12.1,17.5-26.2
					c0,0-12,13.8-26.7,11.6c-14.7-2.1-33.9-7.2-33.9-7.2h-76.3C478.5,255,430.9,267.3,420.2,250.4z"/>
			</g>
			<g>
				<path class="st3" d="M440.8,250.6l151.5-0.3c0,0,11.1,8.2,22.8,0.3c0,0-5.3,16.8-17.6,19.1c-12.3,2.2-33.5,0-33.5,0l-6.5-9
					l-4.4,10h-70.4l-3.5-10l-4.7,10h-39.9c0,0-11.4-0.2-14.4-20.1C420.2,250.6,430.2,257,440.8,250.6z"/>
			</g>
			<g class="st4">
				<g>
					<path class="st5" d="M592.6,250.2l-40.4,0.1l6.2,11l5.9,8.3c0,0,21.1,2.2,33.5,0c12.3-2.2,17.6-19.1,17.6-19.1
						C603.7,258.4,592.6,250.2,592.6,250.2z"/>
				</g>
			</g>
			<g>
				<path class="st17" d="M440.8,250.4c-10.6,6.4-20.5,0-20.5,0c2.9,19.9,14.4,20.1,14.4,20.1h39.9l4.7-10l0.1,0.2l3.5-10.5
					L440.8,250.4z"/>
			</g>
		</g>
		<g>
			<g>
				<path class="st6" d="M504.7,291.8h-10.5v-7.7c0-2.4,2-4.4,4.4-4.4h1.8c2.4,0,4.4,2,4.4,4.4V291.8z"/>
			</g>
			<g>
				<path class="st6" d="M537.3,291.8h-10.5V284c0-2.4,2-4.4,4.4-4.4h1.8c2.4,0,4.4,2,4.4,4.4V291.8z"/>
			</g>
			<g>
				<path class="st6" d="M522.7,291.8h-13.8v-7.6c0-3.2,2.6-5.7,5.7-5.7h2.3c3.2,0,5.7,2.6,5.7,5.7V291.8z"/>
			</g>
		</g>
		<g>
			<g>
				<path class="st6" d="M468.1,280L468.1,280c-1.8,0.2-3.1,1.6-3.1,3.2v8.7h7.1v-8.7C472.1,281.3,470.2,279.8,468.1,280z"/>
			</g>
			<g>
				<path class="st6" d="M458.2,281.2L458.2,281.2c-1.8,0.2-3.1,1.6-3.1,3.2v7.5h7.1v-7.5C462.2,282.5,460.3,280.9,458.2,281.2z"/>
			</g>
			<g>
				<path class="st6" d="M448,282.3L448,282.3c-1.8,0.2-3.1,1.6-3.1,3.2v6.5h7.1v-6.5C452,283.5,450.1,282,448,282.3z"/>
			</g>
		</g>
		<g>
			<g>
				<path class="st6" d="M563.3,280L563.3,280c1.8,0.2,3.1,1.6,3.1,3.2v8.7h-7.1v-8.7C559.3,281.3,561.2,279.8,563.3,280z"/>
			</g>
			<g>
				<path class="st6" d="M573.2,281.2L573.2,281.2c1.8,0.2,3.1,1.6,3.1,3.2v7.5h-7.1v-7.5C569.2,282.5,571.1,280.9,573.2,281.2z"/>
			</g>
			<g>
				<path class="st6" d="M583.4,282.3L583.4,282.3c1.8,0.2,3.1,1.6,3.1,3.2v6.5h-7.1v-6.5C579.4,283.5,581.3,282,583.4,282.3z"/>
			</g>
		</g>
		<g class="st15">
			<g>
				<rect x="517.5" y="250.4" class="st18" width="0.3" height="20.2"/>
			</g>
			<g>
				<polygon class="st18" points="524,270.6 521.8,250.6 522,250.5 524.3,270.6 				"/>
			</g>
			<g>
				
					<rect x="528.1" y="249.9" transform="matrix(0.9797 -0.2003 0.2003 0.9797 -41.4058 111.0519)" class="st18" width="0.3" height="20.5"/>
			</g>
			<g>
				
					<rect x="533.4" y="249.8" transform="matrix(0.9608 -0.2772 0.2772 0.9608 -51.2804 158.1055)" class="st18" width="0.3" height="21.2"/>
			</g>
			<g>
				
					<rect x="539.3" y="249.4" transform="matrix(0.9276 -0.3735 0.3735 0.9276 -58.267 220.3423)" class="st18" width="0.3" height="22.2"/>
			</g>
			<g>
				
					<rect x="546.1" y="249.3" transform="matrix(0.8977 -0.4407 0.4407 0.8977 -58.9165 267.3701)" class="st18" width="0.3" height="22.5"/>
			</g>
		</g>
		<g class="st15">
			<g>
				<polygon class="st18" points="511.3,270.5 511,270.5 513.3,250.4 513.6,250.5 				"/>
			</g>
			<g>
				<polygon class="st18" points="505.3,270.5 505.1,270.5 509.2,250.4 509.4,250.5 				"/>
			</g>
			<g>
				
					<rect x="491.7" y="260.5" transform="matrix(0.2856 -0.9584 0.9584 0.2856 109.0324 667.4414)" class="st18" width="20.9" height="0.3"/>
			</g>
			<g>
				<polygon class="st18" points="492.5,270.5 492.2,270.4 499,250.4 499.3,250.5 				"/>
			</g>
		</g>
		<g class="st15">
			<path class="st16" d="M426.1,265.3c-0.1,0-0.2,0-0.3,0l0-0.2c0.1,0,0.2,0,0.3,0c11.4,0,22.9-14.6,23-14.8l0.2,0.1
				C449.1,250.6,437.6,265.3,426.1,265.3z"/>
		</g>
		<g class="st15">
			<polygon class="st18" points="486,270.4 485.7,270.3 493.2,250.5 493.4,250.6 			"/>
		</g>
		<g>
			<path class="st19" d="M452,270.5"/>
		</g>
		<g>
			<path class="st19" d="M443.7,270.2"/>
		</g>
		<g class="st15">
			<path class="st18" d="M434.6,270.6l-0.1-0.2c12.3-6.2,19.5-19.8,19.6-19.9l0.2,0.1C454.3,250.8,447,264.4,434.6,270.6z"/>
		</g>
		<g class="st15">
			<path class="st18" d="M445.7,270.5l-0.1-0.2c4.4-1.3,14.9-19.8,15-20l0.2,0.1C460.4,251.2,450.2,269.2,445.7,270.5z"/>
		</g>
		<g class="st15">
			<path class="st18" d="M454.3,270.7l-0.2-0.2c5-5,11.9-19.9,12-20.1l0.2,0.1C466.3,250.7,459.4,265.7,454.3,270.7z"/>
		</g>
		<g class="st15">
			<path class="st18" d="M461.2,270.7l-0.1-0.2c4.8-3.4,10.2-20.1,10.3-20.3l0.2,0.1C471.3,251,466.1,267.3,461.2,270.7z"/>
		</g>
		<g class="st15">
			<path class="st18" d="M468.6,270.3l-0.1-0.2c3.4-1.3,8.4-19.7,8.5-19.9l0.2,0.1C477,251.1,472.1,269,468.6,270.3z"/>
		</g>
		<g class="st15">
			<path class="st16" d="M606.9,264.2c-11.5,0-20.5-13.4-20.6-13.6l0.2-0.1c0.1,0.1,9.1,13.5,20.4,13.5c0.1,0,0.2,0,0.3,0l0,0.2
				C607.1,264.2,607,264.2,606.9,264.2z"/>
		</g>
		<g class="st15">
			<path class="st18" d="M599.6,269.3c-12.3-6.2-19.6-18.5-19.6-18.7l0.2-0.1c0.1,0.1,7.3,12.4,19.5,18.6L599.6,269.3z"/>
		</g>
		<g class="st15">
			<path class="st18" d="M591.1,270.5c-4.5-1.3-16.2-19.1-16.6-19.9l0.2-0.1c0.1,0.2,12.1,18.4,16.5,19.8L591.1,270.5z"/>
		</g>
		<g class="st15">
			<path class="st18" d="M582.4,270.7c-5-5-13.2-19.9-13.3-20.1l0.2-0.1c0.1,0.1,8.3,15,13.3,20L582.4,270.7z"/>
		</g>
		<g class="st15">
			<path class="st18" d="M576.9,270.7c-4.9-3.4-13.1-19.4-13.5-20.1l0.2-0.1c0.1,0.2,8.6,16.6,13.4,20L576.9,270.7z"/>
		</g>
		<g class="st15">
			<path class="st18" d="M569.8,270.5c-3.5-1.3-12.2-19.3-12.6-20.1l0.2-0.1c0.1,0.2,9,18.7,12.4,20L569.8,270.5z"/>
		</g>
	</g>
	<g>
		<g>
			<g>
				<rect x="425.4" y="316" class="st1" width="179.1" height="20.3"/>
			</g>
			<g>
				<polygon class="st7" points="551.6,315.5 604.5,317.8 604.5,336.4 551.6,336.4 				"/>
			</g>
			<g>
				<rect x="475" y="313.4" class="st0" width="76.6" height="23"/>
			</g>
			<g>
				<path class="st2" d="M411.8,291.5c0,0,1.3,24.3,13.6,28.4l50.2-3h85.9l43,3c0,0,19.6-13.1,18.9-28.4c0,0-13,14.9-29,12.6
					c-16-2.3-36.8-7.8-36.8-7.8H475C475,296.5,423.3,309.8,411.8,291.5z"/>
			</g>
			<g>
				<path class="st3" d="M434,291.6l164.3-0.3c0,0,12,8.9,24.7,0.3c0,0-5.7,18.2-19.1,20.7s-36.3,0-36.3,0l-7-9.8l-4.8,10.9h-76.4
					l-3.8-10.9l-5.1,10.9h-43.3c0,0-12.4-0.2-15.6-21.8C411.8,291.6,422.6,298.6,434,291.6z"/>
			</g>
			<g class="st4">
				<g>
					<path class="st5" d="M598.7,291.3l-43.8,0.1l6.7,11.9l6.4,9c0,0,22.9,2.4,36.3,0c13.4-2.4,19.1-20.7,19.1-20.7
						C610.7,300.2,598.7,291.3,598.7,291.3z"/>
				</g>
			</g>
			<g>
				<path class="st17" d="M434,291.5c-11.5,7-22.3,0-22.3,0c3.2,21.6,15.6,21.8,15.6,21.8h43.3l5.1-10.9l0.1,0.2l3.8-11.3L434,291.5
					z"/>
			</g>
		</g>
		<g>
			<g>
				<path class="st6" d="M503.4,336.4H492v-8.7c0-2.4,2-4.4,4.4-4.4h2.7c2.4,0,4.4,2,4.4,4.4V336.4z"/>
			</g>
			<g>
				<path class="st6" d="M538.7,336.4h-11.4v-8.9c0-2.4,2-4.4,4.4-4.4h2.7c2.4,0,4.4,2,4.4,4.4V336.4z"/>
			</g>
			<g>
				<path class="st6" d="M522.8,336.4h-15v-8.7c0-3.2,2.6-5.7,5.7-5.7h3.5c3.2,0,5.7,2.6,5.7,5.7V336.4z"/>
			</g>
		</g>
		<g>
			<g>
				<path class="st6" d="M463.7,323.6L463.7,323.6c-1.9,0.2-3.3,1.7-3.3,3.5v9.4h7.7v-9.4C468,324.9,466,323.3,463.7,323.6z"/>
			</g>
			<g>
				<path class="st6" d="M452.9,324.9L452.9,324.9c-1.9,0.2-3.3,1.7-3.3,3.5v8.1h7.7v-8.1C457.3,326.2,455.2,324.6,452.9,324.9z"/>
			</g>
			<g>
				<path class="st6" d="M441.9,326L441.9,326c-1.9,0.2-3.3,1.7-3.3,3.5v7h7.7v-7C446.2,327.4,444.2,325.7,441.9,326z"/>
			</g>
		</g>
		<g>
			<g>
				<path class="st6" d="M566.9,323.6L566.9,323.6c1.9,0.2,3.3,1.7,3.3,3.5v9.4h-7.7v-9.4C562.6,324.9,564.6,323.3,566.9,323.6z"/>
			</g>
			<g>
				<path class="st6" d="M577.6,324.9L577.6,324.9c1.9,0.2,3.3,1.7,3.3,3.5v8.1h-7.7v-8.1C573.3,326.2,575.3,324.6,577.6,324.9z"/>
			</g>
			<g>
				<path class="st6" d="M588.7,326L588.7,326c1.9,0.2,3.3,1.7,3.3,3.5v7h-7.7v-7C584.4,327.4,586.4,325.7,588.7,326z"/>
			</g>
		</g>
		<g class="st15">
			<g>
				<rect x="517.3" y="291.5" class="st18" width="0.3" height="21.9"/>
			</g>
			<g>
				<polygon class="st18" points="524.3,313.4 521.9,291.6 522.1,291.6 524.6,313.4 				"/>
			</g>
			<g>
				
					<rect x="528.7" y="291" transform="matrix(0.9797 -0.2002 0.2002 0.9797 -49.7763 112.013)" class="st18" width="0.3" height="22.2"/>
			</g>
			<g>
				
					<rect x="534.5" y="290.8" transform="matrix(0.9608 -0.2772 0.2772 0.9608 -62.8545 160.0502)" class="st18" width="0.3" height="23"/>
			</g>
			<g>
				
					<rect x="540.9" y="290.4" transform="matrix(0.9276 -0.3735 0.3735 0.9276 -73.8069 223.958)" class="st18" width="0.3" height="24"/>
			</g>
			<g>
				
					<rect x="548.2" y="290.3" transform="matrix(0.8977 -0.4407 0.4407 0.8977 -77.1678 272.603)" class="st18" width="0.3" height="24.4"/>
			</g>
		</g>
		<g class="st15">
			<g>
				<polygon class="st18" points="510.5,313.3 510.3,313.3 512.7,291.5 513,291.5 				"/>
			</g>
			<g>
				<polygon class="st18" points="504,313.3 503.8,313.2 508.2,291.5 508.5,291.5 				"/>
			</g>
			<g>
				
					<rect x="489.3" y="302.4" transform="matrix(0.2856 -0.9584 0.9584 0.2856 67.7495 695.9132)" class="st18" width="22.7" height="0.3"/>
			</g>
			<g>
				<polygon class="st18" points="490.1,313.3 489.8,313.2 497.2,291.4 497.5,291.5 				"/>
			</g>
		</g>
		<g class="st15">
			<path class="st16" d="M418.1,307.6c-0.1,0-0.2,0-0.3,0l0-0.2c0.1,0,0.2,0,0.3,0c12.4,0,24.8-15.8,24.9-16l0.2,0.1
				C443.1,291.7,430.6,307.6,418.1,307.6z"/>
		</g>
		<g class="st15">
			<polygon class="st18" points="483.1,313.2 482.8,313.1 490.9,291.6 491.1,291.7 			"/>
		</g>
		<g>
			<path class="st19" d="M446.2,313.2"/>
		</g>
		<g>
			<path class="st19" d="M437.2,312.9"/>
		</g>
		<g class="st15">
			<path class="st18" d="M427.4,313.4l-0.1-0.2c13.3-6.7,21.2-21.4,21.3-21.6l0.2,0.1C448.7,291.8,440.8,306.6,427.4,313.4z"/>
		</g>
		<g class="st15">
			<path class="st18" d="M439.3,313.2l-0.1-0.2c4.8-1.4,16.2-21.5,16.3-21.7l0.2,0.1C455.3,292.3,444.3,311.8,439.3,313.2z"/>
		</g>
		<g class="st15">
			<path class="st18" d="M448.8,313.5l-0.2-0.2c5.4-5.4,12.9-21.6,13-21.8l0.2,0.1C461.7,291.8,454.2,308,448.8,313.5z"/>
		</g>
		<g class="st15">
			<path class="st18" d="M456.2,313.5l-0.1-0.2c5.2-3.6,11.1-21.8,11.1-22l0.2,0.1C467.2,292.1,461.5,309.8,456.2,313.5z"/>
		</g>
		<g class="st15">
			<path class="st18" d="M464.2,313.1l-0.1-0.2c3.7-1.4,9.1-21.3,9.2-21.5l0.2,0.1C473.3,292.2,468,311.6,464.2,313.1z"/>
		</g>
		<g class="st15">
			<path class="st16" d="M614.2,306.4c-12.5,0-22.2-14.6-22.3-14.7l0.2-0.1c0.1,0.1,9.8,14.6,22.2,14.6c0.1,0,0.2,0,0.3,0l0,0.2
				C614.4,306.4,614.3,306.4,614.2,306.4z"/>
		</g>
		<g class="st15">
			<path class="st18" d="M606.3,311.9c-13.4-6.7-21.2-20.1-21.3-20.2l0.2-0.1c0.1,0.1,7.9,13.4,21.2,20.1L606.3,311.9z"/>
		</g>
		<g class="st15">
			<path class="st18" d="M597,313.2c-4.9-1.5-17.5-20.7-18-21.5l0.2-0.1c0.1,0.2,13.1,20,17.9,21.4L597,313.2z"/>
		</g>
		<g class="st15">
			<path class="st18" d="M587.6,313.5c-5.5-5.4-14.3-21.6-14.4-21.8l0.2-0.1c0.1,0.2,9,16.3,14.4,21.7L587.6,313.5z"/>
		</g>
		<g class="st15">
			<path class="st18" d="M581.6,313.5c-5.3-3.7-14.2-21-14.6-21.8l0.2-0.1c0.1,0.2,9.3,18,14.5,21.7L581.6,313.5z"/>
		</g>
		<g class="st15">
			<path class="st18" d="M574,313.2c-3.8-1.4-13.2-21-13.6-21.8l0.2-0.1c0.1,0.2,9.8,20.3,13.5,21.7L574,313.2z"/>
		</g>
	</g>
	<g>
		<g>
			<g>
				<rect x="424.4" y="362.3" class="st1" width="185.9" height="21.1"/>
			</g>
			<g>
				<polygon class="st7" points="555.4,361.8 610.3,364.1 610.3,383.4 555.4,383.4 				"/>
			</g>
			<g>
				<rect x="475.9" y="359.6" class="st0" width="79.5" height="23.8"/>
			</g>
			<g>
				<path class="st2" d="M410.3,336.8c0,0,1.4,25.2,14.2,29.5l52.1-3.1h89.2l44.7,3.2c0,0,20.4-13.6,19.7-29.5
					c0,0-13.5,15.5-30.1,13.1c-16.6-2.4-38.2-8.1-38.2-8.1h-85.9C475.9,342,422.3,355.9,410.3,336.8z"/>
			</g>
			<g>
				<path class="st3" d="M433.4,337l170.6-0.4c0,0,12.5,9.2,25.7,0.4c0,0-5.9,18.9-19.8,21.5c-13.9,2.5-37.7,0-37.7,0l-7.3-10.2
					l-5,11.3h-79.3l-4-11.3l-5.3,11.3h-44.9c0,0-12.9-0.2-16.2-22.6C410.3,337,421.5,344.2,433.4,337z"/>
			</g>
			<g class="st4">
				<g>
					<path class="st5" d="M604.3,336.6l-45.5,0.1l7,12.4l6.7,9.3c0,0,23.8,2.5,37.7,0C624,355.9,630,337,630,337
						C616.8,345.8,604.3,336.6,604.3,336.6z"/>
				</g>
			</g>
			<g>
				<path class="st17" d="M433.4,336.8c-11.9,7.3-23.1,0-23.1,0c3.3,22.4,16.2,22.6,16.2,22.6h44.9l5.3-11.3l0.1,0.3l4-11.8
					L433.4,336.8z"/>
			</g>
		</g>
		<g>
			<g>
				<path class="st6" d="M505.4,383.4h-11.9v-9.2c0-2.4,2-4.4,4.4-4.4h3.1c2.4,0,4.4,2,4.4,4.4V383.4z"/>
			</g>
			<g>
				<path class="st6" d="M542.1,383.4h-11.9V374c0-2.4,2-4.4,4.4-4.4h3.1c2.4,0,4.4,2,4.4,4.4V383.4z"/>
			</g>
			<g>
				<path class="st6" d="M525.6,383.4H510v-9.3c0-3.2,2.6-5.7,5.7-5.7h4.1c3.2,0,5.7,2.6,5.7,5.7V383.4z"/>
			</g>
		</g>
		<g>
			<g>
				<path class="st6" d="M464.1,370.1L464.1,370.1c-2,0.2-3.4,1.8-3.4,3.6v9.8h7.9v-9.8C468.6,371.6,466.5,369.9,464.1,370.1z"/>
			</g>
			<g>
				<path class="st6" d="M453,371.5L453,371.5c-2,0.2-3.4,1.8-3.4,3.6v8.5h7.9v-8.5C457.5,372.9,455.4,371.2,453,371.5z"/>
			</g>
			<g>
				<path class="st6" d="M441.5,372.7L441.5,372.7c-2,0.2-3.4,1.8-3.4,3.6v7.3h7.9v-7.3C446,374.1,443.9,372.4,441.5,372.7z"/>
			</g>
		</g>
		<g>
			<g>
				<path class="st6" d="M571.3,370.1L571.3,370.1c2,0.2,3.4,1.8,3.4,3.6v9.8h-7.9v-9.8C566.8,371.6,568.9,369.9,571.3,370.1z"/>
			</g>
			<g>
				<path class="st6" d="M582.4,371.5L582.4,371.5c2,0.2,3.4,1.8,3.4,3.6v8.5h-7.9v-8.5C577.9,372.9,580,371.2,582.4,371.5z"/>
			</g>
			<g>
				<path class="st6" d="M593.9,372.7L593.9,372.7c2,0.2,3.4,1.8,3.4,3.6v7.3h-7.9v-7.3C589.4,374.1,591.5,372.4,593.9,372.7z"/>
			</g>
		</g>
		<g class="st15">
			<g>
				<rect x="519.8" y="336.8" class="st18" width="0.3" height="22.7"/>
			</g>
			<g>
				<polygon class="st18" points="527.1,359.6 524.6,337 524.8,337 527.4,359.5 				"/>
			</g>
			<g>
				
					<rect x="531.7" y="336.3" transform="matrix(0.9797 -0.2002 0.2002 0.9797 -58.8718 113.5227)" class="st18" width="0.3" height="23.1"/>
			</g>
			<g>
				
					<rect x="537.7" y="336.2" transform="matrix(0.9608 -0.2772 0.2772 0.9608 -75.4151 162.7357)" class="st18" width="0.3" height="23.8"/>
			</g>
			<g>
				
					<rect x="544.3" y="335.7" transform="matrix(0.9276 -0.3735 0.3735 0.9276 -90.6524 228.5733)" class="st18" width="0.3" height="24.9"/>
			</g>
			<g>
				
					<rect x="551.9" y="335.6" transform="matrix(0.8977 -0.4407 0.4407 0.8977 -96.9508 278.9102)" class="st18" width="0.3" height="25.3"/>
			</g>
		</g>
		<g class="st15">
			<g>
				<polygon class="st18" points="512.8,359.5 512.5,359.4 515.1,336.9 515.3,336.9 				"/>
			</g>
			<g>
				<polygon class="st18" points="506,359.4 505.8,359.4 510.4,336.8 510.7,336.9 				"/>
			</g>
			<g>
				
					<rect x="490.7" y="348.1" transform="matrix(0.2856 -0.9584 0.9584 0.2856 25.2456 730.4073)" class="st18" width="23.6" height="0.3"/>
			</g>
			<g>
				<polygon class="st18" points="491.6,359.4 491.3,359.4 499,336.8 499.2,336.9 				"/>
			</g>
		</g>
		<g class="st15">
			<path class="st16" d="M416.9,353.6c-0.1,0-0.2,0-0.3,0l0-0.2c0.1,0,0.2,0,0.3,0c12.9,0,25.7-16.4,25.9-16.6l0.2,0.1
				C442.8,337.1,429.9,353.6,416.9,353.6z"/>
		</g>
		<g class="st15">
			<polygon class="st18" points="484.3,359.3 484,359.2 492.4,336.9 492.7,337 			"/>
		</g>
		<g>
			<path class="st19" d="M446,359.4"/>
		</g>
		<g>
			<path class="st19" d="M436.7,359.1"/>
		</g>
		<g class="st15">
			<path class="st18" d="M426.5,359.5l-0.1-0.2c13.8-7,22-22.2,22.1-22.4l0.2,0.1C448.6,337.2,440.4,352.6,426.5,359.5z"/>
		</g>
		<g class="st15">
			<path class="st18" d="M438.9,359.4l-0.1-0.2c5-1.5,16.8-22.3,16.9-22.5l0.2,0.1C455.5,337.7,444,357.9,438.9,359.4z"/>
		</g>
		<g class="st15">
			<path class="st18" d="M448.7,359.7l-0.2-0.2c5.6-5.6,13.4-22.4,13.5-22.6l0.2,0.1C462.1,337.1,454.3,354,448.7,359.7z"/>
		</g>
		<g class="st15">
			<path class="st18" d="M456.4,359.7l-0.1-0.2c5.4-3.8,11.5-22.7,11.6-22.8l0.2,0.1C467.8,337.5,461.9,355.8,456.4,359.7z"/>
		</g>
		<g class="st15">
			<path class="st18" d="M464.7,359.2l-0.1-0.2c3.8-1.4,9.5-22.1,9.5-22.4l0.2,0.1C474.2,337.5,468.7,357.7,464.7,359.2z"/>
		</g>
		<g class="st15">
			<path class="st16" d="M620.4,352.3c-12.9,0-23.1-15.1-23.2-15.3l0.2-0.1c0.1,0.2,10.2,15.2,23,15.2c0.1,0,0.2,0,0.4,0l0,0.2
				C620.6,352.3,620.5,352.3,620.4,352.3z"/>
		</g>
		<g class="st15">
			<path class="st18" d="M612.2,358c-13.9-7-22-20.9-22.1-21l0.2-0.1c0.1,0.1,8.2,13.9,22,20.9L612.2,358z"/>
		</g>
		<g class="st15">
			<path class="st18" d="M602.6,359.4c-5.1-1.5-18.2-21.5-18.7-22.4l0.2-0.1c0.1,0.2,13.6,20.8,18.6,22.3L602.6,359.4z"/>
		</g>
		<g class="st15">
			<path class="st18" d="M592.8,359.7c-5.7-5.7-14.9-22.4-15-22.6l0.2-0.1c0.1,0.2,9.3,16.9,14.9,22.6L592.8,359.7z"/>
		</g>
		<g class="st15">
			<path class="st18" d="M586.6,359.6c-5.5-3.8-15.1-22.4-15.1-22.6l0.2-0.1c0.1,0.2,9.6,18.7,15.1,22.5L586.6,359.6z"/>
		</g>
		<g class="st15">
			<path class="st18" d="M578.7,359.4c-4-1.5-13.7-21.7-14.1-22.6l0.2-0.1c0.1,0.2,10.1,21,14,22.5L578.7,359.4z"/>
		</g>
	</g>
	<g>
		<g>
			<g>
				<rect x="414.2" y="411.3" class="st1" width="202.9" height="23.1"/>
			</g>
			<g>
				<polygon class="st7" points="557.1,410.7 617.1,413.3 617.1,434.3 557.1,434.3 				"/>
			</g>
			<g>
				<rect x="470.3" y="408.3" class="st0" width="86.8" height="26"/>
			</g>
			<g>
				<path class="st2" d="M398.7,383.5c0,0,1.5,27.6,15.5,32.2l56.8-3.3h97.3l48.8,3.4c0,0,22.2-14.9,21.4-32.2
					c0,0-14.7,16.9-32.8,14.3c-18.1-2.6-41.7-8.8-41.7-8.8h-93.7C470.3,389.1,411.8,404.2,398.7,383.5z"/>
			</g>
			<g>
				<path class="st3" d="M424,383.6l186.1-0.4c0,0,13.6,10,28,0.4c0,0-6.5,20.7-21.6,23.4s-41.1,0-41.1,0l-7.9-11.1l-5.4,12.3h-86.5
					l-4.3-12.3l-5.8,12.3h-49c0,0-14.1-0.2-17.7-24.6C398.7,383.6,411,391.6,424,383.6z"/>
			</g>
			<g class="st4">
				<g>
					<path class="st5" d="M610.5,383.3l-49.6,0.1l7.6,13.5l7.3,10.2c0,0,26,2.8,41.1,0c15.1-2.8,21.6-23.4,21.6-23.4
						C624.1,393.3,610.5,383.3,610.5,383.3z"/>
				</g>
			</g>
			<g>
				<path class="st17" d="M424,383.5c-13,7.9-25.2,0-25.2,0c3.6,24.5,17.7,24.6,17.7,24.6h49l5.8-12.3l0.1,0.3l4.3-12.8L424,383.5z"
					/>
			</g>
		</g>
		<g>
			<g>
				<path class="st6" d="M502.5,434.3h-13v-10.5c0-2.4,2-4.4,4.4-4.4h4.2c2.4,0,4.4,2,4.4,4.4V434.3z"/>
			</g>
			<g>
				<path class="st6" d="M542.6,434.3h-13v-10.6c0-2.4,2-4.4,4.4-4.4h4.2c2.4,0,4.4,2,4.4,4.4V434.3z"/>
			</g>
			<g>
				<path class="st6" d="M524.6,434.3h-17v-10.7c0-3.2,2.6-5.7,5.7-5.7h5.5c3.2,0,5.7,2.6,5.7,5.7V434.3z"/>
			</g>
		</g>
		<g>
			<g>
				<path class="st6" d="M457.5,419.8L457.5,419.8c-2.2,0.3-3.8,2-3.8,3.9v10.7h8.7v-10.7C462.4,421.4,460.1,419.5,457.5,419.8z"/>
			</g>
			<g>
				<path class="st6" d="M445.4,421.3L445.4,421.3c-2.2,0.3-3.8,2-3.8,3.9v9.2h8.7v-9.2C450.3,422.8,448,421,445.4,421.3z"/>
			</g>
			<g>
				<path class="st6" d="M432.8,422.6L432.8,422.6c-2.2,0.3-3.8,2-3.8,3.9v7.9h8.7v-7.9C437.7,424.1,435.4,422.3,432.8,422.6z"/>
			</g>
		</g>
		<g>
			<g>
				<path class="st6" d="M574.5,419.8L574.5,419.8c2.2,0.3,3.8,2,3.8,3.9v10.7h-8.7v-10.7C569.5,421.4,571.9,419.5,574.5,419.8z"/>
			</g>
			<g>
				<path class="st6" d="M586.6,421.3L586.6,421.3c2.2,0.3,3.8,2,3.8,3.9v9.2h-8.7v-9.2C581.7,422.8,584,421,586.6,421.3z"/>
			</g>
			<g>
				<path class="st6" d="M599.2,422.6L599.2,422.6c2.2,0.3,3.8,2,3.8,3.9v7.9h-8.7v-7.9C594.2,424.1,596.6,422.3,599.2,422.6z"/>
			</g>
		</g>
		<g class="st15">
			<g>
				<rect x="518.3" y="383.5" class="st18" width="0.3" height="24.8"/>
			</g>
			<g>
				<polygon class="st18" points="526.3,408.3 523.5,383.6 523.7,383.6 526.5,408.3 				"/>
			</g>
			<g>
				
					<rect x="531.2" y="382.9" transform="matrix(0.9797 -0.2002 0.2002 0.9797 -68.4276 114.4092)" class="st18" width="0.3" height="25.2"/>
			</g>
			<g>
				
					<rect x="537.8" y="382.7" transform="matrix(0.9608 -0.2772 0.2772 0.9608 -88.6209 164.6118)" class="st18" width="0.3" height="26"/>
			</g>
			<g>
				
					<rect x="545" y="382.3" transform="matrix(0.9276 -0.3735 0.3735 0.9276 -108.4153 232.2931)" class="st18" width="0.3" height="27.2"/>
			</g>
			<g>
				
					<rect x="553.3" y="382.1" transform="matrix(0.8977 -0.4407 0.4407 0.8977 -117.8234 284.4132)" class="st18" width="0.3" height="27.6"/>
			</g>
		</g>
		<g class="st15">
			<g>
				<polygon class="st18" points="510.6,408.2 510.3,408.2 513.1,383.5 513.4,383.5 				"/>
			</g>
			<g>
				<polygon class="st18" points="503.2,408.2 503,408.1 508,383.5 508.3,383.5 				"/>
			</g>
			<g>
				
					<rect x="486.5" y="395.8" transform="matrix(0.2856 -0.9584 0.9584 0.2856 -22.6941 761.493)" class="st18" width="25.7" height="0.3"/>
			</g>
			<g>
				<polygon class="st18" points="487.4,408.2 487.2,408.1 495.6,383.4 495.8,383.5 				"/>
			</g>
		</g>
		<g class="st15">
			<path class="st16" d="M405.9,401.8c-0.1,0-0.2,0-0.4,0l0-0.2c0.1,0,0.2,0,0.4,0c14.1,0,28.1-18,28.2-18.1l0.2,0.1
				C434.2,383.7,420.1,401.8,405.9,401.8z"/>
		</g>
		<g class="st15">
			<polygon class="st18" points="479.5,408 479.2,407.9 488.4,383.6 488.6,383.7 			"/>
		</g>
		<g>
			<path class="st19" d="M437.7,408.1"/>
		</g>
		<g>
			<path class="st19" d="M427.5,407.8"/>
		</g>
		<g class="st15">
			<path class="st18" d="M416.4,408.3l-0.1-0.2c15.1-7.6,24-24.3,24.1-24.4l0.2,0.1C440.5,383.9,431.6,400.6,416.4,408.3z"/>
		</g>
		<g class="st15">
			<path class="st18" d="M430,408.1l-0.1-0.2c5.5-1.6,18.3-24.3,18.4-24.5l0.2,0.1C448,384.4,435.5,406.5,430,408.1z"/>
		</g>
		<g class="st15">
			<path class="st18" d="M440.6,408.4l-0.2-0.2c6.2-6.1,14.7-24.5,14.7-24.7l0.2,0.1C455.3,383.8,446.8,402.2,440.6,408.4z"/>
		</g>
		<g class="st15">
			<path class="st18" d="M449,408.4l-0.1-0.2c5.9-4.1,12.5-24.7,12.6-24.9l0.2,0.1C461.5,384.2,455,404.2,449,408.4z"/>
		</g>
		<g class="st15">
			<path class="st18" d="M458.1,407.9l-0.1-0.2c4.2-1.6,10.4-24.2,10.4-24.4l0.2,0.1C468.5,384.3,462.5,406.3,458.1,407.9z"/>
		</g>
		<g class="st15">
			<path class="st16" d="M628,400.4c-7.3,0-13.7-4.4-17.9-8.2c-4.6-4.2-7.4-8.4-7.4-8.4l0.2-0.1c0.1,0.2,11.1,16.6,25.1,16.6
				c0.1,0,0.3,0,0.4,0l0,0.2C628.3,400.4,628.2,400.4,628,400.4z"/>
		</g>
		<g class="st15">
			<path class="st18" d="M619.1,406.6c-15.2-7.6-24-22.8-24.1-22.9l0.2-0.1c0.1,0.2,8.9,15.2,24,22.8L619.1,406.6z"/>
		</g>
		<g class="st15">
			<path class="st18" d="M608.6,408.1c-5.6-1.7-19.8-23.5-20.4-24.4l0.2-0.1c0.1,0.2,14.8,22.7,20.3,24.3L608.6,408.1z"/>
		</g>
		<g class="st15">
			<path class="st18" d="M597.9,408.4c-6.2-6.2-16.2-24.5-16.3-24.7l0.2-0.1c0.1,0.2,10.1,18.5,16.3,24.6L597.9,408.4z"/>
		</g>
		<g class="st15">
			<path class="st18" d="M591.2,408.4c-6-4.2-16.4-24.4-16.5-24.6l0.2-0.1c0.1,0.2,10.5,20.4,16.4,24.6L591.2,408.4z"/>
		</g>
		<g class="st15">
			<path class="st18" d="M582.5,408.1c-4.3-1.6-15-23.7-15.4-24.7l0.2-0.1c0.1,0.2,11.1,23,15.3,24.5L582.5,408.1z"/>
		</g>
	</g>
	<g>
		<g>
			<g>
				<rect x="405.1" y="464.1" class="st1" width="220" height="25"/>
			</g>
			<g>
				<polygon class="st7" points="560.1,463.4 625.1,466.2 625.1,489.1 560.1,489.1 				"/>
			</g>
			<g>
				<rect x="466" y="460.8" class="st0" width="94.1" height="28.2"/>
			</g>
			<g>
				<path class="st2" d="M388.3,433.9c0,0,1.6,29.9,16.8,34.9l61.6-3.6h105.5l52.9,3.7c0,0,24.1-16.1,23.3-34.9
					c0,0-16,18.3-35.6,15.5c-19.6-2.8-45.2-9.6-45.2-9.6H466C466,440,402.6,456.4,388.3,433.9z"/>
			</g>
			<g>
				<path class="st3" d="M415.7,434.1l201.8-0.4c0,0,14.8,10.9,30.4,0.4c0,0-7,22.4-23.5,25.4c-16.4,3-44.6,0-44.6,0l-8.6-12
					l-5.9,13.4h-93.8l-4.7-13.4l-6.2,13.4h-53.2c0,0-15.2-0.2-19.2-26.7C388.3,434.1,401.6,442.7,415.7,434.1z"/>
			</g>
			<g class="st4">
				<g>
					<path class="st5" d="M617.9,433.7l-53.8,0.1l8.3,14.6l7.9,11.1c0,0,28.1,3,44.6,0c16.4-3,23.5-25.4,23.5-25.4
						C632.7,444.6,617.9,433.7,617.9,433.7z"/>
				</g>
			</g>
			<g>
				<path class="st17" d="M415.7,433.9c-14.1,8.6-27.4,0-27.4,0c3.9,26.5,19.2,26.7,19.2,26.7h53.2l6.2-13.4l0.1,0.3l4.7-13.9
					L415.7,433.9z"/>
			</g>
		</g>
		<g>
			<g>
				<path class="st6" d="M500.9,489.1h-14.1v-11.7c0-2.4,2-4.4,4.4-4.4h5.3c2.4,0,4.4,2,4.4,4.4V489.1z"/>
			</g>
			<g>
				<path class="st6" d="M544.3,489h-14.1v-11.9c0-2.4,2-4.4,4.4-4.4h5.3c2.4,0,4.4,2,4.4,4.4V489z"/>
			</g>
			<g>
				<path class="st6" d="M524.8,489h-18.4V477c0-3.2,2.6-5.7,5.7-5.7h6.9c3.2,0,5.7,2.6,5.7,5.7V489z"/>
			</g>
		</g>
		<g>
			<g>
				<path class="st6" d="M452.1,473.3L452.1,473.3c-2.3,0.3-4.1,2.1-4.1,4.3v11.6h9.4v-11.6C457.4,475,454.9,473,452.1,473.3z"/>
			</g>
			<g>
				<path class="st6" d="M438.9,474.9L438.9,474.9c-2.3,0.3-4.1,2.1-4.1,4.3v10h9.4v-10C444.2,476.6,441.7,474.6,438.9,474.9z"/>
			</g>
			<g>
				<path class="st6" d="M425.3,476.3L425.3,476.3c-2.3,0.3-4.1,2.1-4.1,4.3v8.6h9.4v-8.6C430.6,478,428.1,476,425.3,476.3z"/>
			</g>
		</g>
		<g>
			<g>
				<path class="st6" d="M578.9,473.3L578.9,473.3c2.3,0.3,4.1,2.1,4.1,4.3v11.6h-9.4v-11.6C573.6,475,576.1,473,578.9,473.3z"/>
			</g>
			<g>
				<path class="st6" d="M592.1,474.9L592.1,474.9c2.3,0.3,4.1,2.1,4.1,4.3v10h-9.4v-10C586.7,476.6,589.2,474.6,592.1,474.9z"/>
			</g>
			<g>
				<path class="st6" d="M605.7,476.3L605.7,476.3c2.3,0.3,4.1,2.1,4.1,4.3v8.6h-9.4v-8.6C600.3,478,602.8,476,605.7,476.3z"/>
			</g>
		</g>
		<g class="st15">
			<g>
				<rect x="518" y="433.9" class="st18" width="0.3" height="26.9"/>
			</g>
			<g>
				<polygon class="st18" points="526.6,460.8 523.6,434.1 523.9,434.1 526.9,460.8 				"/>
			</g>
			<g>
				
					<rect x="532" y="433.3" transform="matrix(0.9798 -0.2002 0.2002 0.9798 -78.7053 115.5923)" class="st18" width="0.3" height="27.3"/>
			</g>
			<g>
				
					<rect x="539.1" y="433.1" transform="matrix(0.9608 -0.2772 0.2772 0.9608 -102.8349 166.9968)" class="st18" width="0.3" height="28.2"/>
			</g>
			<g>
				
					<rect x="547" y="432.6" transform="matrix(0.9276 -0.3736 0.3736 0.9276 -127.5114 236.7671)" class="st18" width="0.3" height="29.5"/>
			</g>
			<g>
				
					<rect x="556" y="432.4" transform="matrix(0.8977 -0.4407 0.4407 0.8977 -140.2401 290.846)" class="st18" width="0.3" height="29.9"/>
			</g>
		</g>
		<g class="st15">
			<g>
				<polygon class="st18" points="509.6,460.7 509.4,460.7 512.4,434 512.6,434 				"/>
			</g>
			<g>
				<polygon class="st18" points="501.7,460.7 501.4,460.6 506.9,433.9 507.1,434 				"/>
			</g>
			<g>
				
					<rect x="483.5" y="447.3" transform="matrix(0.2856 -0.9584 0.9584 0.2856 -73.4039 796.4666)" class="st18" width="27.9" height="0.3"/>
			</g>
			<g>
				<polygon class="st18" points="484.5,460.7 484.3,460.6 493.4,433.9 493.6,433.9 				"/>
			</g>
		</g>
		<g class="st15">
			<path class="st16" d="M396.2,453.7c-0.1,0-0.3,0-0.4,0l0-0.2c0.1,0,0.3,0,0.4,0c15.2,0,30.5-19.5,30.6-19.7l0.2,0.1
				c0,0.1-3.9,5.1-9.7,10C412,448.5,404.1,453.7,396.2,453.7z"/>
		</g>
		<g class="st15">
			<polygon class="st18" points="475.9,460.5 475.7,460.5 485.6,434.1 485.8,434.1 			"/>
		</g>
		<g>
			<path class="st19" d="M430.6,460.6"/>
		</g>
		<g>
			<path class="st19" d="M419.6,460.3"/>
		</g>
		<g class="st15">
			<path class="st18" d="M407.5,460.8l-0.1-0.2c16.4-8.2,26-26.3,26.1-26.5l0.2,0.1C433.7,434.3,424,452.5,407.5,460.8z"/>
		</g>
		<g class="st15">
			<path class="st18" d="M422.2,460.6l-0.1-0.2c5.9-1.8,19.9-26.4,20-26.6l0.2,0.1C441.8,434.9,428.2,458.8,422.2,460.6z"/>
		</g>
		<g class="st15">
			<path class="st18" d="M433.7,460.9l-0.2-0.2c6.7-6.7,15.9-26.6,16-26.8l0.2,0.1C449.7,434.3,440.5,454.2,433.7,460.9z"/>
		</g>
		<g class="st15">
			<path class="st18" d="M442.9,460.9l-0.1-0.2c6.4-4.5,13.6-26.8,13.7-27l0.2,0.1C456.4,434.7,449.4,456.4,442.9,460.9z"/>
		</g>
		<g class="st15">
			<path class="st18" d="M452.8,460.4l-0.1-0.2c4.6-1.7,11.2-26.2,11.3-26.5l0.2,0.1C463.9,434.8,457.4,458.7,452.8,460.4z"/>
		</g>
		<g class="st15">
			<path class="st16" d="M637,452.2c-7.9,0-14.9-4.8-19.4-8.9c-4.9-4.5-8-9.1-8-9.2l0.2-0.1c0.1,0.2,12.1,18,27.3,18
				c0.1,0,0.3,0,0.4,0l0,0.2C637.3,452.2,637.1,452.2,637,452.2z"/>
		</g>
		<g class="st15">
			<path class="st18" d="M627.3,459c-16.4-8.3-26-24.7-26.1-24.8l0.2-0.1c0.1,0.2,9.7,16.5,26,24.7L627.3,459z"/>
		</g>
		<g class="st15">
			<path class="st18" d="M615.9,460.6c-6-1.8-21.5-25.4-22.2-26.4l0.2-0.1c0.2,0.2,16.1,24.6,22,26.3L615.9,460.6z"/>
		</g>
		<g class="st15">
			<path class="st18" d="M604.3,460.9c-6.7-6.7-17.6-26.6-17.7-26.8l0.2-0.1c0.1,0.2,11,20,17.7,26.7L604.3,460.9z"/>
		</g>
		<g class="st15">
			<path class="st18" d="M597,460.9c-6.5-4.5-17.8-26.5-17.9-26.7l0.2-0.1c0.1,0.2,11.4,22.1,17.8,26.6L597,460.9z"/>
		</g>
		<g class="st15">
			<path class="st18" d="M587.6,460.6c-4.7-1.7-16.2-25.7-16.7-26.7l0.2-0.1c0.1,0.2,12,24.9,16.6,26.6L587.6,460.6z"/>
		</g>
	</g>
	<g>
		<g>
			<g>
				<rect x="393.9" y="522.1" class="st1" width="238.6" height="27.1"/>
			</g>
			<g>
				<polygon class="st7" points="562,521.4 632.4,524.5 632.4,549.2 562,549.2 				"/>
			</g>
			<g>
				<rect x="459.9" y="518.6" class="st0" width="102.1" height="30.6"/>
			</g>
			<g>
				<path class="st2" d="M375.7,489.5c0,0,1.8,32.4,18.2,37.9l66.8-3.9h114.4l57.3,4.1c0,0,26.1-17.5,25.2-37.8
					c0,0-17.3,19.9-38.6,16.8s-49-10.4-49-10.4H459.9C459.9,496.1,391.1,513.9,375.7,489.5z"/>
			</g>
			<g>
				<path class="st3" d="M405.4,489.6l218.9-0.5c0,0,16,11.8,33,0.5c0,0-7.6,24.3-25.4,27.5c-17.8,3.2-48.3,0-48.3,0l-9.3-13.1
					l-6.4,14.5H466l-5.1-14.5l-6.8,14.5h-57.7c0,0-16.5-0.2-20.8-29C375.7,489.6,390.1,499,405.4,489.6z"/>
			</g>
			<g class="st4">
				<g>
					<path class="st5" d="M624.7,489.2l-58.3,0.1l9,15.9l8.6,12c0,0,30.5,3.2,48.3,0c17.8-3.2,25.4-27.5,25.4-27.5
						C640.7,501,624.7,489.2,624.7,489.2z"/>
				</g>
			</g>
			<g>
				<path class="st17" d="M405.4,489.5c-15.3,9.3-29.7,0-29.7,0c4.2,28.8,20.8,29,20.8,29h57.7l6.8-14.5l0.1,0.3l5.1-15.1
					L405.4,489.5z"/>
			</g>
		</g>
		<g>
			<g>
				<path class="st6" d="M497.7,549.3h-15.2v-13.1c0-2.4,2-4.4,4.4-4.4h6.5c2.4,0,4.4,2,4.4,4.4V549.3z"/>
			</g>
			<g>
				<path class="st6" d="M544.8,549.2h-15.2v-13.3c0-2.4,2-4.4,4.4-4.4h6.5c2.4,0,4.4,2,4.4,4.4V549.2z"/>
			</g>
			<g>
				<path class="st6" d="M523.7,549.2h-20v-13.6c0-3.2,2.6-5.7,5.7-5.7h8.5c3.2,0,5.7,2.6,5.7,5.7V549.2z"/>
			</g>
		</g>
		<g>
			<g>
				<path class="st6" d="M444.8,532.2L444.8,532.2c-2.5,0.3-4.4,2.3-4.4,4.6v12.5h10.2v-12.5C450.6,534,447.9,531.8,444.8,532.2z"/>
			</g>
			<g>
				<path class="st6" d="M430.5,533.9L430.5,533.9c-2.5,0.3-4.4,2.3-4.4,4.6v10.8h10.2v-10.8C436.3,535.7,433.6,533.5,430.5,533.9z"
					/>
			</g>
			<g>
				<path class="st6" d="M415.8,535.4L415.8,535.4c-2.5,0.3-4.4,2.3-4.4,4.6v9.3h10.2v-9.3C421.6,537.2,418.8,535.1,415.8,535.4z"/>
			</g>
		</g>
		<g>
			<g>
				<path class="st6" d="M582.3,532.2L582.3,532.2c2.5,0.3,4.4,2.3,4.4,4.6v12.5h-10.2v-12.5C576.6,534,579.3,531.8,582.3,532.2z"/>
			</g>
			<g>
				<path class="st6" d="M596.6,533.9L596.6,533.9c2.5,0.3,4.4,2.3,4.4,4.6v10.8h-10.2v-10.8C590.8,535.7,593.6,533.5,596.6,533.9z"
					/>
			</g>
			<g>
				<path class="st6" d="M611.4,535.4L611.4,535.4c2.5,0.3,4.4,2.3,4.4,4.6v9.3h-10.2v-9.3C605.6,537.2,608.3,535.1,611.4,535.4z"/>
			</g>
		</g>
		<g class="st15">
			<g>
				<rect x="516.3" y="489.5" class="st18" width="0.3" height="29.2"/>
			</g>
			<g>
				<polygon class="st18" points="525.7,518.6 522.4,489.6 522.7,489.6 525.9,518.6 				"/>
			</g>
			<g>
				
					<rect x="531.5" y="488.7" transform="matrix(0.9797 -0.2002 0.2002 0.9797 -90.0607 116.6509)" class="st18" width="0.3" height="29.6"/>
			</g>
			<g>
				
					<rect x="539.2" y="488.6" transform="matrix(0.9608 -0.2772 0.2772 0.9608 -118.5386 169.2536)" class="st18" width="0.3" height="30.6"/>
			</g>
			<g>
				
					<rect x="547.8" y="488" transform="matrix(0.9276 -0.3735 0.3735 0.9276 -148.6116 241.1231)" class="st18" width="0.3" height="32"/>
			</g>
			<g>
				
					<rect x="557.5" y="487.8" transform="matrix(0.8977 -0.4407 0.4407 0.8977 -165.0591 297.3339)" class="st18" width="0.3" height="32.5"/>
			</g>
		</g>
		<g class="st15">
			<g>
				<polygon class="st18" points="507.2,518.5 506.9,518.5 510.2,489.5 510.5,489.5 				"/>
			</g>
			<g>
				<polygon class="st18" points="498.6,518.5 498.3,518.4 504.2,489.4 504.5,489.5 				"/>
			</g>
			<g>
				
					<rect x="478.9" y="504" transform="matrix(0.2891 -0.9573 0.9573 0.2891 -131.3949 831.3263)" class="st18" width="30.2" height="0.3"/>
			</g>
			<g>
				<polygon class="st18" points="480,518.5 479.7,518.4 489.6,489.4 489.8,489.5 				"/>
			</g>
		</g>
		<g class="st15">
			<path class="st16" d="M384.2,510.9c-0.1,0-0.3,0-0.4,0l0-0.2c0.1,0,0.3,0,0.4,0c8.6,0,17.1-5.7,22.7-10.5
				c6.2-5.3,10.5-10.8,10.5-10.8l0.2,0.1c0,0.1-4.3,5.5-10.5,10.8C401.3,505.2,392.8,510.9,384.2,510.9z"/>
		</g>
		<g class="st15">
			
				<rect x="460.6" y="503.8" transform="matrix(0.3511 -0.9363 0.9363 0.3511 -163.0738 772.5977)" class="st18" width="30.6" height="0.3"/>
		</g>
		<g>
			<path class="st19" d="M421.6,518.4"/>
		</g>
		<g>
			<path class="st19" d="M409.5,518"/>
		</g>
		<g class="st15">
			<path class="st18" d="M396.5,518.6l-0.1-0.2c17.7-8.9,28.2-28.6,28.3-28.8l0.2,0.1C424.8,489.9,414.3,509.6,396.5,518.6z"/>
		</g>
		<g class="st15">
			<path class="st18" d="M412.4,518.4l-0.1-0.2c6.4-1.9,21.6-28.6,21.7-28.9l0.2,0.1C433.6,490.5,419,516.4,412.4,518.4z"/>
		</g>
		<g class="st15">
			<path class="st18" d="M424.9,518.7l-0.2-0.2c7.2-7.2,17.2-28.8,17.3-29l0.2,0.1C442.2,489.8,432.2,511.5,424.9,518.7z"/>
		</g>
		<g class="st15">
			<path class="st18" d="M434.8,518.7l-0.1-0.2c7-4.9,14.8-29.1,14.8-29.3l0.2,0.1C449.7,489.5,441.9,513.8,434.8,518.7z"/>
		</g>
		<g class="st15">
			<path class="st18" d="M445.5,518.1l-0.1-0.2c4.9-1.8,12.2-28.4,12.3-28.7l0.2,0.1C457.7,490.4,450.6,516.3,445.5,518.1z"/>
		</g>
		<g class="st15">
			<path class="st16" d="M645.3,509.3c-8.6,0-16.1-5.2-21-9.7c-5.4-4.9-8.7-9.9-8.7-9.9l0.2-0.1c0,0,3.4,5,8.7,9.9
				c4.8,4.4,12.4,9.6,20.9,9.6c0.2,0,0.3,0,0.5,0l0,0.2C645.6,509.3,645.5,509.3,645.3,509.3z"/>
		</g>
		<g class="st15">
			<path class="st18" d="M634.8,516.6c-17.8-9-28.2-26.7-28.3-26.9l0.2-0.1c0.1,0.2,10.5,17.9,28.2,26.8L634.8,516.6z"/>
		</g>
		<g class="st15">
			<path class="st18" d="M622.5,518.4c-6.5-1.9-23.3-27.6-24-28.7l0.2-0.1c0.2,0.3,17.4,26.7,23.9,28.6L622.5,518.4z"/>
		</g>
		<g class="st15">
			<path class="st18" d="M609.9,518.7c-7.3-7.3-19.1-28.8-19.2-29l0.2-0.1c0.1,0.2,11.9,21.7,19.2,29L609.9,518.7z"/>
		</g>
		<g class="st15">
			<path class="st18" d="M602,518.7c-7-4.9-19.3-28.7-19.4-29l0.2-0.1c0.1,0.2,12.4,24,19.3,28.9L602,518.7z"/>
		</g>
		<g class="st15">
			<path class="st18" d="M591.8,518.4c-5.1-1.9-17.6-27.9-18.1-29l0.2-0.1c0.1,0.3,13,27,18,28.9L591.8,518.4z"/>
		</g>
	</g>
	<g>
		<g>
			<g>
				<rect x="383.8" y="584.6" class="st1" width="258.4" height="29.4"/>
			</g>
			<g>
				<polygon class="st7" points="565.8,583.8 642.2,587.1 642.2,613.9 565.8,613.9 				"/>
			</g>
			<g>
				<rect x="455.3" y="580.8" class="st0" width="110.6" height="33.1"/>
			</g>
			<g>
				<path class="st2" d="M364.1,549.2c0,0,1.9,35.1,19.7,41l72.4-4.3h123.9l62.1,4.4c0,0,28.3-19,27.3-41c0,0-18.8,21.5-41.8,18.2
					s-53.1-11.2-53.1-11.2H455.3C455.3,556.4,380.8,575.6,364.1,549.2z"/>
			</g>
			<g>
				<path class="st3" d="M396.2,549.4l237.1-0.5c0,0,17.3,12.8,35.7,0.5c0,0-8.3,26.3-27.6,29.8s-52.3,0-52.3,0L579,565.1l-6.9,15.7
					H461.9l-5.5-15.7l-7.3,15.7h-62.4c0,0-17.9-0.2-22.5-31.4C364.1,549.4,379.7,559.5,396.2,549.4z"/>
			</g>
			<g class="st4">
				<g>
					<path class="st5" d="M633.8,548.9l-63.2,0.1l9.7,17.2l9.3,13c0,0,33.1,3.5,52.3,0c19.3-3.5,27.6-29.8,27.6-29.8
						C651.1,561.7,633.8,548.9,633.8,548.9z"/>
				</g>
			</g>
			<g>
				<path class="st17" d="M396.2,549.2c-16.5,10.1-32.1,0-32.1,0c4.6,31.1,22.5,31.4,22.5,31.4H449l7.3-15.7l0.1,0.4l5.5-16.4
					L396.2,549.2z"/>
			</g>
		</g>
		<g>
			<g>
				<path class="st6" d="M496.3,614h-16.5v-14.5c0-2.4,2-4.4,4.4-4.4h7.7c2.4,0,4.4,2,4.4,4.4V614z"/>
			</g>
			<g>
				<path class="st6" d="M547.3,613.9h-16.5v-14.8c0-2.4,2-4.4,4.4-4.4h7.7c2.4,0,4.4,2,4.4,4.4V613.9z"/>
			</g>
			<g>
				<path class="st6" d="M524.3,613.9h-21.6v-15.2c0-3.2,2.6-5.7,5.7-5.7h10.1c3.2,0,5.7,2.6,5.7,5.7V613.9z"/>
			</g>
		</g>
		<g>
			<g>
				<path class="st6" d="M439,595.5L439,595.5c-2.7,0.3-4.8,2.5-4.8,5v13.6h11v-13.6C445.2,597.5,442.3,595.1,439,595.5z"/>
			</g>
			<g>
				<path class="st6" d="M423.5,597.3L423.5,597.3c-2.7,0.3-4.8,2.5-4.8,5v11.7h11v-11.7C429.7,599.3,426.8,596.9,423.5,597.3z"/>
			</g>
			<g>
				<path class="st6" d="M407.5,599L407.5,599c-2.7,0.3-4.8,2.5-4.8,5v10.1h11V604C413.8,601,410.8,598.6,407.5,599z"/>
			</g>
		</g>
		<g>
			<g>
				<path class="st6" d="M587.9,595.5L587.9,595.5c2.7,0.3,4.8,2.5,4.8,5v13.6h-11v-13.6C581.6,597.5,584.6,595.1,587.9,595.5z"/>
			</g>
			<g>
				<path class="st6" d="M603.4,597.3L603.4,597.3c2.7,0.3,4.8,2.5,4.8,5v11.7h-11v-11.7C597.1,599.3,600.1,596.9,603.4,597.3z"/>
			</g>
			<g>
				<path class="st6" d="M619.3,599L619.3,599c2.7,0.3,4.8,2.5,4.8,5v10.1h-11V604C613.1,601,616,598.6,619.3,599z"/>
			</g>
		</g>
		<g class="st15">
			<g>
				<rect x="516.4" y="549.2" class="st18" width="0.3" height="31.6"/>
			</g>
			<g>
				<polygon class="st18" points="526.6,580.8 523,549.4 523.3,549.4 526.8,580.8 				"/>
			</g>
			<g>
				<polygon class="st18" points="536.1,580.2 529.6,548.8 529.9,548.7 536.3,580.1 				"/>
			</g>
			<g>
				<polygon class="st18" points="545.8,580.8 536.6,548.9 536.9,548.9 546.1,580.7 				"/>
			</g>
			<g>
				
					<rect x="550.5" y="547.7" transform="matrix(0.9276 -0.3735 0.3735 0.9276 -171.183 246.541)" class="st18" width="0.3" height="34.7"/>
			</g>
			<g>
				<polygon class="st18" points="568.8,580.9 553.3,549.3 553.5,549.2 569,580.7 				"/>
			</g>
		</g>
		<g class="st15">
			<g>
				<polygon class="st18" points="506.5,580.7 506.2,580.6 509.8,549.2 510,549.3 				"/>
			</g>
			<g>
				<polygon class="st18" points="497.2,580.6 496.9,580.6 503.3,549.2 503.6,549.2 				"/>
			</g>
			<g>
				<polygon class="st18" points="487.7,580.8 487.5,580.8 496.9,549.4 497.1,549.4 				"/>
			</g>
			<g>
				<polygon class="st18" points="477,580.6 476.8,580.5 487.5,549.1 487.7,549.2 				"/>
			</g>
		</g>
		<g class="st15">
			<path class="st16" d="M373.3,572.4c-0.2,0-0.3,0-0.5,0l0-0.2c0.2,0,0.3,0,0.5,0c9.3,0,18.5-6.2,24.6-11.4
				c6.8-5.8,11.3-11.7,11.4-11.7l0.2,0.1c0,0.1-4.6,6-11.4,11.7C391.9,566.2,382.6,572.4,373.3,572.4z"/>
		</g>
		<g class="st15">
			<polygon class="st18" points="466.9,580.5 466.7,580.4 478.3,549.4 478.6,549.5 			"/>
		</g>
		<g>
			<path class="st19" d="M413.8,580.6"/>
		</g>
		<g>
			<path class="st19" d="M400.8,580.1"/>
		</g>
		<g class="st15">
			<path class="st18" d="M386.6,580.7l-0.1-0.2c19.2-9.7,30.6-30.9,30.7-31.2l0.2,0.1C417.3,549.7,405.9,571,386.6,580.7z"/>
		</g>
		<g class="st15">
			<path class="st18" d="M403.9,580.5l-0.1-0.2c7-2.1,23.4-31,23.5-31.3l0.2,0.1C426.8,550.3,410.9,578.4,403.9,580.5z"/>
		</g>
		<g class="st15">
			<path class="st18" d="M417.4,580.9l-0.2-0.2c7.8-7.8,18.7-31.2,18.8-31.4l0.2,0.1C436.1,549.6,425.3,573,417.4,580.9z"/>
		</g>
		<g class="st15">
			<path class="st18" d="M428.1,580.9l-0.1-0.2c7.6-5.3,16-31.5,16.1-31.8l0.2,0.1C444.2,549.3,435.8,575.6,428.1,580.9z"/>
		</g>
		<g class="st15">
			<path class="st18" d="M439.7,580.3l-0.1-0.2c5.4-2,13.2-30.8,13.3-31.1l0.2,0.1C452.9,550.2,445.2,578.2,439.7,580.3z"/>
		</g>
		<g class="st15">
			<path class="st16" d="M656.1,570.7c-9.3,0-17.5-5.7-22.8-10.5c-5.8-5.3-9.4-10.7-9.5-10.8l0.2-0.1c0,0.1,3.6,5.4,9.4,10.7
				c5.2,4.8,13.4,10.4,22.6,10.4c0.2,0,0.3,0,0.5,0l0,0.2C656.5,570.7,656.3,570.7,656.1,570.7z"/>
		</g>
		<g class="st15">
			<path class="st18" d="M644.8,578.6c-19.3-9.7-30.6-29-30.7-29.2l0.2-0.1c0.1,0.2,11.4,19.4,30.6,29.1L644.8,578.6z"/>
		</g>
		<g class="st15">
			<path class="st18" d="M631.4,580.5c-7.1-2.1-25.2-29.9-26-31.1l0.2-0.1c0.2,0.3,18.9,28.9,25.9,31L631.4,580.5z"/>
		</g>
		<g class="st15">
			<path class="st18" d="M617.8,580.9c-7.9-7.9-20.7-31.2-20.8-31.4l0.2-0.1c0.1,0.2,12.9,23.5,20.8,31.4L617.8,580.9z"/>
		</g>
		<g class="st15">
			<path class="st18" d="M609.2,580.8c-7.6-5.3-20.9-31.1-21-31.4l0.2-0.1c0.1,0.3,13.4,26,21,31.3L609.2,580.8z"/>
		</g>
		<g class="st15">
			<path class="st18" d="M598.2,580.5c-5.5-2-19.1-30.2-19.6-31.4l0.2-0.1c0.1,0.3,14.1,29.3,19.5,31.3L598.2,580.5z"/>
		</g>
	</g>
	<g>
		<g>
			<g>
				<rect x="369.5" y="652.7" class="st1" width="282" height="32"/>
			</g>
			<g>
				<polygon class="st7" points="568.2,651.8 651.5,655.4 651.5,684.7 568.2,684.7 				"/>
			</g>
			<g>
				<rect x="447.6" y="648.5" class="st0" width="120.7" height="36.2"/>
			</g>
			<g>
				<path class="st2" d="M348,614.1c0,0,2.1,38.3,21.5,44.8l79-4.6h135.3l67.8,4.8c0,0,30.9-20.7,29.8-44.7c0,0-20.5,23.5-45.6,19.9
					s-57.9-12.3-57.9-12.3H447.6C447.6,621.9,366.3,642.9,348,614.1z"/>
			</g>
			<g>
				<path class="st3" d="M383.1,614.3l258.7-0.5c0,0,18.9,13.9,39,0.5c0,0-9,28.7-30.1,32.6s-57.1,0-57.1,0l-11-15.4l-7.5,17.1
					H454.8l-6-17.1l-8,17.1h-68.2c0,0-19.5-0.3-24.6-34.3C348,614.3,365.1,625.3,383.1,614.3z"/>
			</g>
			<g class="st4">
				<g>
					<path class="st5" d="M642.4,613.7l-68.9,0.1l10.6,18.8l10.1,14.2c0,0,36.1,3.8,57.1,0c21-3.8,30.1-32.6,30.1-32.6
						C661.3,627.7,642.4,613.7,642.4,613.7z"/>
				</g>
			</g>
			<g>
				<path class="st17" d="M383.1,614.1c-18,11-35.1,0-35.1,0c5,34,24.6,34.3,24.6,34.3h68.2l8-17.1l0.1,0.4l6-17.9L383.1,614.1z"/>
			</g>
		</g>
		<g>
			<g>
				<path class="st6" d="M492.3,684.7h-18v-16.3c0-2.4,2-4.4,4.4-4.4h9.2c2.4,0,4.4,2,4.4,4.4V684.7z"/>
			</g>
			<g>
				<path class="st6" d="M547.9,684.7h-18v-16.5c0-2.4,2-4.4,4.4-4.4h9.2c2.4,0,4.4,2,4.4,4.4V684.7z"/>
			</g>
			<g>
				<path class="st6" d="M522.9,684.7h-23.6v-17.1c0-3.2,2.6-5.7,5.7-5.7h12.1c3.2,0,5.7,2.6,5.7,5.7L522.9,684.7z"/>
			</g>
		</g>
		<g>
			<g>
				<path class="st6" d="M429.8,664.6L429.8,664.6c-3,0.4-5.2,2.7-5.2,5.5v14.8h12.1v-14.8C436.6,666.7,433.4,664.1,429.8,664.6z"/>
			</g>
			<g>
				<path class="st6" d="M412.9,666.6L412.9,666.6c-3,0.4-5.2,2.7-5.2,5.5v12.8h12.1v-12.8C419.7,668.7,416.5,666.1,412.9,666.6z"/>
			</g>
			<g>
				<path class="st6" d="M395.4,668.4L395.4,668.4c-3,0.4-5.2,2.7-5.2,5.5v11h12.1v-11C402.3,670.5,399,667.9,395.4,668.4z"/>
			</g>
		</g>
		<g>
			<g>
				<path class="st6" d="M592.3,664.6L592.3,664.6c3,0.4,5.2,2.7,5.2,5.5v14.8h-12.1v-14.8C585.5,666.7,588.7,664.1,592.3,664.6z"/>
			</g>
			<g>
				<path class="st6" d="M609.2,666.6L609.2,666.6c3,0.4,5.2,2.7,5.2,5.5v12.8h-12.1v-12.8C602.4,668.7,605.6,666.1,609.2,666.6z"/>
			</g>
			<g>
				<path class="st6" d="M626.6,668.4L626.6,668.4c3,0.4,5.2,2.7,5.2,5.5v11h-12.1v-11C619.8,670.5,623,667.9,626.6,668.4z"/>
			</g>
		</g>
		<g class="st15">
			<g>
				<rect x="514.3" y="614.1" class="st18" width="0.3" height="34.5"/>
			</g>
			<g>
				<polygon class="st18" points="525.4,648.5 521.5,614.3 521.7,614.2 525.6,648.5 				"/>
			</g>
			<g>
				<polygon class="st18" points="535.7,647.8 528.7,613.6 529,613.5 536,647.8 				"/>
			</g>
			<g>
				<polygon class="st18" points="546.4,648.5 536.4,613.8 536.6,613.7 546.6,648.4 				"/>
			</g>
			<g>
				
					<rect x="551.4" y="612.4" transform="matrix(0.9276 -0.3735 0.3735 0.9276 -195.8745 251.7175)" class="st18" width="0.3" height="37.8"/>
			</g>
			<g>
				<polygon class="st18" points="571.5,648.6 554.5,614.1 554.8,614 571.7,648.5 				"/>
			</g>
		</g>
		<g class="st15">
			<g>
				<polygon class="st18" points="503.4,648.4 503.2,648.3 507.1,614.1 507.3,614.1 				"/>
			</g>
			<g>
				<polygon class="st18" points="493.3,648.3 493,648.3 500,614 500.3,614.1 				"/>
			</g>
			<g>
				<polygon class="st18" points="483,648.6 482.7,648.5 492.9,614.2 493.2,614.3 				"/>
			</g>
			<g>
				<polygon class="st18" points="471.3,648.3 471,648.2 482.7,614 482.9,614.1 				"/>
			</g>
		</g>
		<g class="st15">
			<path class="st16" d="M358.1,639.4c-0.2,0-0.3,0-0.5,0l0-0.2c0.2,0,0.3,0,0.5,0c10.1,0,20.2-6.7,26.9-12.4
				c7.4-6.3,12.4-12.7,12.4-12.8l0.2,0.1c0,0.1-5.1,6.5-12.4,12.8C378.3,632.6,368.3,639.4,358.1,639.4z"/>
		</g>
		<g class="st15">
			<polygon class="st18" points="460.2,648.1 460,648.1 472.7,614.2 473,614.3 			"/>
		</g>
		<g>
			<path class="st19" d="M402.3,648.3"/>
		</g>
		<g>
			<path class="st19" d="M388.1,647.8"/>
		</g>
		<g class="st15">
			<path class="st18" d="M372.6,648.4l-0.1-0.2c21-10.6,33.4-33.8,33.5-34l0.2,0.1C406.1,614.6,393.7,637.8,372.6,648.4z"/>
		</g>
		<g class="st15">
			<path class="st18" d="M391.4,648.2l-0.1-0.2c7.6-2.3,25.5-33.8,25.7-34.1l0.2,0.1C416.5,615.3,399.2,645.9,391.4,648.2z"/>
		</g>
		<g class="st15">
			<path class="st18" d="M406.2,648.6l-0.2-0.2c8.6-8.5,20.4-34.1,20.5-34.3l0.2,0.1C426.7,614.5,414.8,640,406.2,648.6z"/>
		</g>
		<g class="st15">
			<path class="st18" d="M417.9,648.6l-0.1-0.2c8.2-5.7,17.5-34.4,17.5-34.7l0.2,0.1C435.5,614.1,426.3,642.8,417.9,648.6z"/>
		</g>
		<g class="st15">
			<path class="st18" d="M430.6,647.9l-0.1-0.2c5.9-2.2,14.4-33.6,14.5-34l0.2,0.1C444.9,615.1,436.6,645.7,430.6,647.9z"/>
		</g>
		<g class="st15">
			<path class="st16" d="M666.8,637.5c-10.1,0-19.1-6.2-24.8-11.4c-6.3-5.8-10.3-11.7-10.3-11.7l0.2-0.1c0,0.1,4,5.9,10.3,11.7
				c5.7,5.2,14.6,11.4,24.7,11.4c0.2,0,0.4,0,0.5,0l0,0.2C667.1,637.5,666.9,637.5,666.8,637.5z"/>
		</g>
		<g class="st15">
			<path class="st18" d="M654.4,646.1c-21.1-10.6-33.4-31.6-33.5-31.8l0.2-0.1c0.1,0.2,12.4,21.2,33.4,31.7L654.4,646.1z"/>
		</g>
		<g class="st15">
			<path class="st18" d="M639.7,648.2c-7.7-2.3-27.5-32.6-28.4-33.9l0.2-0.1c0.2,0.3,20.6,31.5,28.2,33.8L639.7,648.2z"/>
		</g>
		<g class="st15">
			<path class="st18" d="M624.9,648.6c-8.6-8.6-22.6-34-22.7-34.3l0.2-0.1c0.1,0.3,14.1,25.7,22.7,34.2L624.9,648.6z"/>
		</g>
		<g class="st15">
			<path class="st18" d="M615.5,648.6c-8.3-5.8-22.8-34-23-34.2l0.2-0.1c0.1,0.3,14.6,28.4,22.9,34.1L615.5,648.6z"/>
		</g>
		<g class="st15">
			<path class="st18" d="M603.5,648.2c-6-2.2-20.8-33-21.4-34.3l0.2-0.1c0.2,0.3,15.4,31.9,21.3,34.1L603.5,648.2z"/>
		</g>
	</g>
	<g>
		<g>
			<g>
				<rect x="356.9" y="726" class="st1" width="305.8" height="34.7"/>
			</g>
			<g>
				<polygon class="st7" points="572.3,725.2 662.7,729 662.7,760.8 572.3,760.8 				"/>
			</g>
			<g>
				<rect x="441.5" y="721.5" class="st0" width="130.8" height="39.2"/>
			</g>
			<g>
				<path class="st2" d="M333.6,684.2c0,0,2.3,41.5,23.3,48.5l85.6-5h146.7l73.5,5.2c0,0,33.5-22.4,32.3-48.5
					c0,0-22.2,25.5-49.5,21.5c-27.3-4-62.8-13.3-62.8-13.3H441.5C441.5,692.6,353.4,715.4,333.6,684.2z"/>
			</g>
			<g>
				<path class="st3" d="M371.6,684.4l280.5-0.6c0,0,20.5,15.1,42.2,0.6c0,0-9.8,31.1-32.6,35.3s-61.9,0-61.9,0l-12-16.7l-8.2,18.6
					H449.3l-6.5-18.6l-8.7,18.6h-73.9c0,0-21.2-0.3-26.6-37.1C333.6,684.4,352.1,696.3,371.6,684.4z"/>
			</g>
			<g class="st4">
				<g>
					<path class="st5" d="M652.7,683.8L578,684l11.5,20.4l11,15.4c0,0,39.1,4.2,61.9,0c22.8-4.2,32.6-35.3,32.6-35.3
						C673.2,698.9,652.7,683.8,652.7,683.8z"/>
				</g>
			</g>
			<g>
				<path class="st17" d="M371.6,684.2c-19.6,11.9-38,0-38,0c5.4,36.9,26.6,37.1,26.6,37.1h73.9l8.7-18.6l0.1,0.4l6.5-19.4
					L371.6,684.2z"/>
			</g>
		</g>
		<g>
			<g>
				<path class="st6" d="M490,760.8h-19.5v-18c0-2.4,2-4.4,4.4-4.4h10.8c2.4,0,4.4,2,4.4,4.4V760.8z"/>
			</g>
			<g>
				<path class="st6" d="M550.4,760.8h-19.5v-18.3c0-2.4,2-4.4,4.4-4.4H546c2.4,0,4.4,2,4.4,4.4V760.8z"/>
			</g>
			<g>
				<path class="st6" d="M523.2,760.8h-25.6v-19c0-3.2,2.6-5.7,5.7-5.7h14.1c3.2,0,5.7,2.6,5.7,5.7V760.8z"/>
			</g>
		</g>
		<g>
			<g>
				<path class="st6" d="M422.2,738.9L422.2,738.9c-3.2,0.4-5.7,2.9-5.7,5.9V761h13.1v-16.1C429.6,741.3,426.1,738.5,422.2,738.9z"
					/>
			</g>
			<g>
				<path class="st6" d="M403.9,741.1L403.9,741.1c-3.2,0.4-5.7,2.9-5.7,5.9V761h13.1v-13.9C411.3,743.4,407.8,740.6,403.9,741.1z"
					/>
			</g>
			<g>
				<path class="st6" d="M385,743.1L385,743.1c-3.2,0.4-5.7,2.9-5.7,5.9V761h13.1V749C392.4,745.4,388.9,742.6,385,743.1z"/>
			</g>
		</g>
		<g>
			<g>
				<path class="st6" d="M598.5,738.9L598.5,738.9c3.2,0.4,5.7,2.9,5.7,5.9V761h-13.1v-16.1C591.1,741.3,594.5,738.5,598.5,738.9z"
					/>
			</g>
			<g>
				<path class="st6" d="M616.8,741.1L616.8,741.1c3.2,0.4,5.7,2.9,5.7,5.9V761h-13.1v-13.9C609.4,743.4,612.8,740.6,616.8,741.1z"
					/>
			</g>
			<g>
				<path class="st6" d="M635.7,743.1L635.7,743.1c3.2,0.4,5.7,2.9,5.7,5.9V761h-13.1V749C628.3,745.4,631.8,742.6,635.7,743.1z"/>
			</g>
		</g>
		<g class="st15">
			<g>
				<rect x="513.9" y="684.2" class="st18" width="0.3" height="37.4"/>
			</g>
			<g>
				<polygon class="st18" points="525.9,721.5 521.7,684.4 521.9,684.4 526.1,721.5 				"/>
			</g>
			<g>
				<polygon class="st18" points="537.1,720.8 529.5,683.7 529.8,683.6 537.4,720.8 				"/>
			</g>
			<g>
				<polygon class="st18" points="548.7,721.5 537.8,683.8 538.1,683.8 548.9,721.4 				"/>
			</g>
			<g>
				
					<rect x="554.2" y="682.3" transform="matrix(0.9276 -0.3735 0.3735 0.9276 -222.4158 257.9277)" class="st18" width="0.3" height="41"/>
			</g>
			<g>
				<polygon class="st18" points="575.9,721.6 557.5,684.2 557.8,684.1 576.1,721.5 				"/>
			</g>
		</g>
		<g class="st15">
			<g>
				<polygon class="st18" points="502.1,721.4 501.9,721.4 506,684.2 506.3,684.2 				"/>
			</g>
			<g>
				<polygon class="st18" points="491.1,721.3 490.8,721.3 498.4,684.1 498.7,684.2 				"/>
			</g>
			<g>
				<polygon class="st18" points="479.9,721.6 479.6,721.5 490.7,684.4 491,684.4 				"/>
			</g>
			<g>
				<polygon class="st18" points="467.2,721.3 467,721.2 479.6,684.1 479.9,684.2 				"/>
			</g>
		</g>
		<g class="st15">
			<path class="st16" d="M344.5,711.6c-0.2,0-0.4,0-0.5,0l0-0.2c0.2,0,0.4,0,0.5,0c11,0,21.9-7.3,29.1-13.5
				c8-6.8,13.4-13.8,13.5-13.9l0.2,0.1c-0.1,0.1-5.5,7.1-13.5,13.9C366.5,704.3,355.5,711.6,344.5,711.6z"/>
		</g>
		<g class="st15">
			<polygon class="st18" points="455.3,721.1 455,721 468.8,684.4 469.1,684.4 			"/>
		</g>
		<g>
			<path class="st19" d="M392.4,721.3"/>
		</g>
		<g>
			<path class="st19" d="M377,720.8"/>
		</g>
		<g class="st15">
			<path class="st18" d="M360.3,721.4l-0.1-0.2c22.8-11.5,36.2-36.6,36.3-36.9l0.2,0.1C396.6,684.7,383.1,709.9,360.3,721.4z"/>
		</g>
		<g class="st15">
			<path class="st18" d="M380.7,721.2l-0.1-0.2c8.3-2.5,27.6-36.7,27.8-37l0.2,0.1C407.9,685.5,389,718.7,380.7,721.2z"/>
		</g>
		<g class="st15">
			<path class="st18" d="M396.7,721.6l-0.2-0.2c9.3-9.3,22.1-36.9,22.2-37.2l0.2,0.1C418.8,684.6,406,712.3,396.7,721.6z"/>
		</g>
		<g class="st15">
			<path class="st18" d="M409.4,721.6l-0.1-0.2c8.9-6.2,18.9-37.3,19-37.6l0.2,0.1C428.4,684.2,418.4,715.4,409.4,721.6z"/>
		</g>
		<g class="st15">
			<path class="st18" d="M423.1,720.9l-0.1-0.2c6.4-2.4,15.7-36.5,15.8-36.8l0.2,0.1C438.7,685.3,429.6,718.5,423.1,720.9z"/>
		</g>
		<g class="st15">
			<path class="st16" d="M679.2,709.5c-11,0-20.7-6.7-26.9-12.4c-6.9-6.3-11.1-12.7-11.2-12.7l0.2-0.1c0,0.1,4.3,6.4,11.2,12.7
				c6.2,5.7,15.8,12.3,26.8,12.3c0.2,0,0.4,0,0.6,0l0,0.2C679.6,709.5,679.4,709.5,679.2,709.5z"/>
		</g>
		<g class="st15">
			<path class="st18" d="M665.8,719c-22.8-11.5-36.2-34.3-36.3-34.5l0.2-0.1c0.1,0.2,13.4,22.9,36.2,34.4L665.8,719z"/>
		</g>
		<g class="st15">
			<path class="st18" d="M649.9,721.2c-8.4-2.5-29.8-35.3-30.8-36.7l0.2-0.1c0.2,0.3,22.3,34.2,30.6,36.6L649.9,721.2z"/>
		</g>
		<g class="st15">
			<path class="st18" d="M633.9,721.6c-9.3-9.3-24.5-36.9-24.6-37.2l0.2-0.1c0.2,0.3,15.3,27.9,24.6,37.1L633.9,721.6z"/>
		</g>
		<g class="st15">
			<path class="st18" d="M623.7,721.6c-9-6.3-24.7-36.8-24.9-37.1l0.2-0.1c0.2,0.3,15.9,30.8,24.8,37L623.7,721.6z"/>
		</g>
		<g class="st15">
			<path class="st18" d="M610.6,721.2c-6.5-2.4-22.5-35.7-23.2-37.1l0.2-0.1c0.2,0.3,16.7,34.6,23.1,37L610.6,721.2z"/>
		</g>
	</g>
	<g>
		<g>
			<g>
				<rect x="355.2" y="805" class="st1" width="317.4" height="36.1"/>
			</g>
			<g>
				<polygon class="st7" points="578.9,804.1 672.6,808.1 672.6,841.1 578.9,841.1 				"/>
			</g>
			<g>
				<rect x="443.1" y="800.4" class="st0" width="135.8" height="40.7"/>
			</g>
			<g>
				<path class="st2" d="M331,761.6c0,0,2.4,43.1,24.2,50.4l88.9-5.2h152.2l76.3,5.4c0,0,34.8-23.3,33.6-50.3c0,0-23,26.5-51.3,22.3
					s-65.2-13.8-65.2-13.8H443.1C443.1,770.4,351.6,794,331,761.6z"/>
			</g>
			<g>
				<path class="st3" d="M370.5,761.8l291.2-0.6c0,0,21.3,15.7,43.9,0.6c0,0-10.2,32.3-33.8,36.6c-23.7,4.3-64.3,0-64.3,0L595,781.1
					l-8.5,19.3H451.2l-6.8-19.3l-9,19.3h-76.7c0,0-22-0.3-27.6-38.6C331,761.8,350.2,774.2,370.5,761.8z"/>
			</g>
			<g class="st4">
				<g>
					<path class="st5" d="M662.3,761.2l-77.6,0.2l11.9,21.1l11.4,16c0,0,40.6,4.3,64.3,0c23.7-4.3,33.8-36.6,33.8-36.6
						C683.6,776.9,662.3,761.2,662.3,761.2z"/>
				</g>
			</g>
			<g>
				<path class="st17" d="M370.5,761.6c-20.3,12.4-39.5,0-39.5,0c5.6,38.3,27.6,38.6,27.6,38.6h76.7l9-19.3l0.2,0.4l6.8-20.1
					L370.5,761.6z"/>
			</g>
		</g>
		<g>
			<g>
				<path class="st6" d="M493.4,841.1h-20.3v-18.9c0-2.4,2-4.4,4.4-4.4h11.5c2.4,0,4.4,2,4.4,4.4V841.1z"/>
			</g>
			<g>
				<path class="st6" d="M556.1,841.1h-20.3v-19.1c0-2.4,2-4.4,4.4-4.4h11.5c2.4,0,4.4,2,4.4,4.4V841.1z"/>
			</g>
			<g>
				<path class="st6" d="M527.9,841.1h-26.6v-19.9c0-3.2,2.6-5.7,5.7-5.7h15.1c3.2,0,5.7,2.6,5.7,5.7V841.1z"/>
			</g>
		</g>
		<g>
			<g>
				<path class="st6" d="M423,818.4L423,818.4c-3.4,0.4-5.9,3.1-5.9,6.2v16.7h13.6v-16.7C430.7,820.8,427.1,817.9,423,818.4z"/>
			</g>
			<g>
				<path class="st6" d="M404,820.7L404,820.7c-3.4,0.4-5.9,3.1-5.9,6.2v14.4h13.6v-14.4C411.7,823.1,408.1,820.2,404,820.7z"/>
			</g>
			<g>
				<path class="st6" d="M384.4,822.7L384.4,822.7c-3.4,0.4-5.9,3.1-5.9,6.2v12.4h13.6v-12.4C392.1,825.1,388.5,822.2,384.4,822.7z"
					/>
			</g>
		</g>
		<g>
			<g>
				<path class="st6" d="M606,818.4L606,818.4c3.4,0.4,5.9,3.1,5.9,6.2v16.7h-13.6v-16.7C598.3,820.8,601.9,817.9,606,818.4z"/>
			</g>
			<g>
				<path class="st6" d="M625,820.7L625,820.7c3.4,0.4,5.9,3.1,5.9,6.2v14.4h-13.6v-14.4C617.3,823.1,620.9,820.2,625,820.7z"/>
			</g>
			<g>
				<path class="st6" d="M644.6,822.7L644.6,822.7c3.4,0.4,5.9,3.1,5.9,6.2v12.4h-13.6v-12.4C636.9,825.1,640.5,822.2,644.6,822.7z"
					/>
			</g>
		</g>
		<g class="st15">
			<g>
				<rect x="518.2" y="761.6" class="st18" width="0.3" height="38.8"/>
			</g>
			<g>
				<polygon class="st18" points="530.6,800.4 526.3,761.8 526.5,761.8 530.9,800.3 				"/>
			</g>
			<g>
				<polygon class="st18" points="542.3,799.6 534.4,761 534.7,761 542.6,799.5 				"/>
			</g>
			<g>
				<polygon class="st18" points="554.3,800.3 543,761.2 543.3,761.2 554.6,800.3 				"/>
			</g>
			<g>
				
					<rect x="560" y="759.7" transform="matrix(0.9276 -0.3735 0.3735 0.9276 -251.1716 265.7639)" class="st18" width="0.3" height="42.6"/>
			</g>
			<g>
				<polygon class="st18" points="582.5,800.4 563.5,761.6 563.7,761.5 582.8,800.3 				"/>
			</g>
		</g>
		<g class="st15">
			<g>
				<polygon class="st18" points="506,800.2 505.7,800.2 510.1,761.6 510.3,761.6 				"/>
			</g>
			<g>
				<polygon class="st18" points="494.5,800.2 494.2,800.1 502.1,761.5 502.4,761.6 				"/>
			</g>
			<g>
				<polygon class="st18" points="482.9,800.4 482.7,800.3 494.2,761.8 494.4,761.8 				"/>
			</g>
			<g>
				<polygon class="st18" points="469.7,800.1 469.5,800 482.6,761.5 482.9,761.6 				"/>
			</g>
		</g>
		<g class="st15">
			<path class="st16" d="M342.3,790.1c-0.2,0-0.4,0-0.6,0l0-0.2c0.2,0,0.4,0,0.6,0c11.4,0,22.7-7.6,30.3-14
				c8.3-7.1,13.9-14.3,14-14.4l0.2,0.1c-0.1,0.1-5.7,7.3-14,14.4C365.2,782.5,353.8,790.1,342.3,790.1z"/>
		</g>
		<g class="st15">
			
				<rect x="444" y="780.7" transform="matrix(0.3511 -0.9363 0.9363 0.3511 -429.8161 941.4707)" class="st18" width="40.7" height="0.3"/>
		</g>
		<g>
			<path class="st19" d="M392.1,800.1"/>
		</g>
		<g>
			<path class="st19" d="M376.1,799.6"/>
		</g>
		<g class="st15">
			<path class="st18" d="M358.7,800.3l-0.1-0.2c23.6-11.9,37.6-38,37.7-38.3l0.2,0.1C396.4,762.1,382.4,788.3,358.7,800.3z"/>
		</g>
		<g class="st15">
			<path class="st18" d="M379.9,800l-0.1-0.2c8.6-2.6,28.7-38.1,28.9-38.4l0.2,0.1C408.1,762.9,388.6,797.4,379.9,800z"/>
		</g>
		<g class="st15">
			<path class="st18" d="M396.5,800.5l-0.2-0.2c9.6-9.6,22.9-38.3,23.1-38.6l0.2,0.1C419.5,762,406.2,790.8,396.5,800.5z"/>
		</g>
		<g class="st15">
			<path class="st18" d="M409.7,800.5l-0.1-0.2c9.3-6.5,19.7-38.7,19.8-39l0.2,0.1C429.5,761.6,419.1,794,409.7,800.5z"/>
		</g>
		<g class="st15">
			<path class="st18" d="M424,799.7l-0.1-0.2c6.6-2.5,16.3-37.9,16.4-38.2l0.2,0.1C440.1,762.7,430.7,797.2,424,799.7z"/>
		</g>
		<g class="st15">
			<path class="st16" d="M689.8,787.9c-11.4,0-21.5-7-27.9-12.8c-7.1-6.5-11.6-13.1-11.6-13.2l0.2-0.1c0,0.1,4.5,6.7,11.6,13.2
				c6.4,5.9,16.4,12.8,27.8,12.8c0.2,0,0.4,0,0.6,0l0,0.2C690.2,787.9,690,787.9,689.8,787.9z"/>
		</g>
		<g class="st15">
			<path class="st18" d="M675.8,797.7c-23.7-11.9-37.5-35.6-37.7-35.8l0.2-0.1c0.1,0.2,14,23.8,37.6,35.7L675.8,797.7z"/>
		</g>
		<g class="st15">
			<path class="st18" d="M659.4,800c-8.7-2.6-31-36.7-31.9-38.1l0.2-0.1c0.2,0.4,23.2,35.5,31.8,38L659.4,800z"/>
		</g>
		<g class="st15">
			<path class="st18" d="M642.7,800.5c-9.7-9.6-25.4-38.3-25.6-38.6l0.2-0.1c0.2,0.3,15.9,28.9,25.5,38.5L642.7,800.5z"/>
		</g>
		<g class="st15">
			<path class="st18" d="M632.1,800.4c-9.3-6.5-25.7-38.2-25.8-38.5l0.2-0.1c0.2,0.3,16.5,32,25.8,38.4L632.1,800.4z"/>
		</g>
		<g class="st15">
			<path class="st18" d="M618.6,800c-6.7-2.5-23.4-37.1-24.1-38.6l0.2-0.1c0.2,0.4,17.3,36,24,38.4L618.6,800z"/>
		</g>
	</g>
	<g>
		<g>
			<g>
				<rect x="337.7" y="888.6" class="st1" width="346.4" height="39.4"/>
			</g>
			<g>
				<polygon class="st7" points="581.8,887.6 684.1,892.1 684.1,928 581.8,928 				"/>
			</g>
			<g>
				<rect x="433.6" y="883.6" class="st0" width="148.2" height="44.4"/>
			</g>
			<g>
				<path class="st2" d="M311.3,841.2c0,0,2.6,47,26.4,55l97-5.7h166.1l83.2,5.9c0,0,37.9-25.4,36.6-54.9c0,0-25.1,28.9-56,24.4
					c-30.9-4.5-71.2-15.1-71.2-15.1h-160C433.6,850.8,333.7,876.6,311.3,841.2z"/>
			</g>
			<g>
				<path class="st3" d="M354.4,841.5l317.8-0.7c0,0,23.2,17.1,47.9,0.7c0,0-11.1,35.3-36.9,40c-25.9,4.7-70.2,0-70.2,0l-13.5-18.9
					l-9.2,21H442.4l-7.4-21l-9.8,21h-83.7c0,0-24-0.3-30.2-42.1C311.3,841.5,332.3,855,354.4,841.5z"/>
			</g>
			<g class="st4">
				<g>
					<path class="st5" d="M672.9,840.8l-84.7,0.2l13,23.1l12.4,17.4c0,0,44.3,4.7,70.2,0c25.9-4.7,36.9-40,36.9-40
						C696.1,857.9,672.9,840.8,672.9,840.8z"/>
				</g>
			</g>
			<g>
				<path class="st17" d="M354.4,841.2c-22.2,13.5-43.1,0-43.1,0c6.2,41.8,30.2,42.1,30.2,42.1h83.7l9.8-21l0.2,0.5l7.4-21.9
					L354.4,841.2z"/>
			</g>
		</g>
		<g>
			<g>
				<path class="st6" d="M488.6,928h-22.1v-21c0-2.4,2-4.4,4.4-4.4h13.4c2.4,0,4.4,2,4.4,4.4V928z"/>
			</g>
			<g>
				<path class="st6" d="M556.9,928h-22.1v-21.3c0-2.4,2-4.4,4.4-4.4h13.4c2.4,0,4.4,2,4.4,4.4V928z"/>
			</g>
			<g>
				<path class="st6" d="M526.2,928h-29v-22.3c0-3.2,2.6-5.7,5.7-5.7h17.5c3.2,0,5.7,2.6,5.7,5.7V928z"/>
			</g>
		</g>
		<g>
			<g>
				<path class="st6" d="M411.7,903.3L411.7,903.3c-3.7,0.5-6.4,3.3-6.4,6.7v18.2h14.8V910C420.1,905.9,416.2,902.7,411.7,903.3z"/>
			</g>
			<g>
				<path class="st6" d="M391,905.7L391,905.7c-3.7,0.5-6.4,3.3-6.4,6.7v15.7h14.8v-15.7C399.4,908.4,395.4,905.2,391,905.7z"/>
			</g>
			<g>
				<path class="st6" d="M369.6,907.9L369.6,907.9c-3.7,0.5-6.4,3.3-6.4,6.7v13.5h14.8v-13.5C377.9,910.6,374,907.4,369.6,907.9z"/>
			</g>
		</g>
		<g>
			<g>
				<path class="st6" d="M611.4,903.3L611.4,903.3c3.7,0.5,6.4,3.3,6.4,6.7v18.2H603V910C603,905.9,606.9,902.7,611.4,903.3z"/>
			</g>
			<g>
				<path class="st6" d="M632.1,905.7L632.1,905.7c3.7,0.5,6.4,3.3,6.4,6.7v15.7h-14.8v-15.7C623.7,908.4,627.7,905.2,632.1,905.7z"
					/>
			</g>
			<g>
				<path class="st6" d="M653.5,907.9L653.5,907.9c3.7,0.5,6.4,3.3,6.4,6.7v13.5h-14.8v-13.5C645.1,910.6,649.1,907.4,653.5,907.9z"
					/>
			</g>
		</g>
		<g class="st15">
			<g>
				<rect x="515.6" y="841.2" class="st18" width="0.3" height="42.3"/>
			</g>
			<g>
				<polygon class="st18" points="529.2,883.5 524.4,841.5 524.7,841.4 529.4,883.5 				"/>
			</g>
			<g>
				<polygon class="st18" points="555,883.5 542.7,840.8 542.9,840.8 555.2,883.4 				"/>
			</g>
			<g>
				
					<rect x="561.2" y="839.1" transform="matrix(0.9276 -0.3735 0.3735 0.9276 -281.4955 272.1081)" class="st18" width="0.3" height="46.5"/>
			</g>
			<g>
				<polygon class="st18" points="585.8,883.6 565,841.3 565.3,841.2 586,883.5 				"/>
			</g>
		</g>
		<g class="st15">
			<g>
				<polygon class="st18" points="502.2,883.4 502,883.3 506.7,841.3 507,841.3 				"/>
			</g>
			<g>
				<polygon class="st18" points="489.7,883.3 489.4,883.3 498,841.2 498.3,841.2 				"/>
			</g>
			<g>
				<polygon class="st18" points="477,883.6 476.8,883.5 489.4,841.4 489.6,841.5 				"/>
			</g>
			<g>
				<polygon class="st18" points="462.7,883.3 462.5,883.2 476.8,841.1 477,841.2 				"/>
			</g>
		</g>
		<g class="st15">
			<path class="st16" d="M323.6,872.3c-0.2,0-0.4,0-0.6,0l0-0.2c0.2,0,0.4,0,0.6,0c12.5,0,24.8-8.3,33-15.3
				c9.1-7.7,15.2-15.6,15.3-15.7l0.2,0.1c-0.1,0.1-6.2,8-15.3,15.7C348.6,864,336.2,872.3,323.6,872.3z"/>
		</g>
		<g class="st15">
			<polygon class="st18" points="449.1,883.1 448.9,883 464.5,841.4 464.8,841.5 			"/>
		</g>
		<g>
			<path class="st19" d="M377.9,883.3"/>
		</g>
		<g>
			<path class="st19" d="M360.5,882.7"/>
		</g>
		<g class="st15">
			<path class="st18" d="M341.5,883.4l-0.1-0.2c25.8-13,41-41.5,41.2-41.8l0.2,0.1C382.7,841.8,367.4,870.4,341.5,883.4z"/>
		</g>
		<g class="st15">
			<path class="st18" d="M364.6,883.2l-0.1-0.2c9.4-2.8,31.3-41.6,31.5-41.9l0.2,0.1C395.4,842.7,374.1,880.3,364.6,883.2z"/>
		</g>
		<g class="st15">
			<path class="st18" d="M382.8,883.6l-0.2-0.2c10.5-10.5,25-41.8,25.2-42.2l0.2,0.1C407.9,841.7,393.3,873.1,382.8,883.6z"/>
		</g>
		<g class="st15">
			<path class="st18" d="M397.2,883.7l-0.1-0.2c10.1-7.1,21.5-42.3,21.6-42.6l0.2,0.1C418.7,841.3,407.4,876.6,397.2,883.7z"/>
		</g>
		<g class="st15">
			<path class="st18" d="M412.7,882.8l-0.1-0.2c7.2-2.7,17.8-41.3,17.9-41.7l0.2,0.1C430.3,842.5,420.1,880.1,412.7,882.8z"/>
		</g>
		<g class="st15">
			<path class="st16" d="M702.8,870c-12.5,0-23.4-7.6-30.5-14c-7.8-7.1-12.6-14.3-12.7-14.4l0.2-0.1c0,0.1,4.9,7.3,12.6,14.4
				c7,6.4,18,14,30.3,14c0.2,0,0.4,0,0.7,0l0,0.2C703.3,870,703.1,870,702.8,870z"/>
		</g>
		<g class="st15">
			<path class="st18" d="M687.6,880.6c-25.9-13-41-38.8-41.1-39.1l0.2-0.1c0.1,0.3,15.2,26,41,39L687.6,880.6z"/>
		</g>
		<g class="st15">
			<path class="st18" d="M669.7,883.2c-9.5-2.8-33.8-40-34.8-41.6l0.2-0.1c0.3,0.4,25.3,38.7,34.7,41.5L669.7,883.2z"/>
		</g>
		<g class="st15">
			<path class="st18" d="M651.5,883.6c-10.5-10.5-27.7-41.8-27.9-42.1l0.2-0.1c0.2,0.3,17.3,31.6,27.8,42L651.5,883.6z"/>
		</g>
		<g class="st15">
			<path class="st18" d="M639.9,883.6c-10.2-7.1-28-41.7-28.2-42l0.2-0.1c0.2,0.3,18,34.9,28.1,42L639.9,883.6z"/>
		</g>
		<g class="st15">
			<path class="st18" d="M625.2,883.2c-7.3-2.7-25.5-40.5-26.3-42.1l0.2-0.1c0.2,0.4,18.9,39.2,26.2,41.9L625.2,883.2z"/>
		</g>
	</g>
</g>
</svg>
